<?xml version="1.0" standalone="no"?>
<!DOCTYPE svg PUBLIC "-//W3C//DTD SVG 20010904//EN"
 "http://www.w3.org/TR/2001/REC-SVG-20010904/DTD/svg10.dtd">
<svg version="1.0" xmlns="http://www.w3.org/2000/svg"
 width="1200.000000pt" height="1440.000000pt" viewBox="0 0 1200.000000 1440.000000"
 preserveAspectRatio="xMidYMid meet">

<g transform="translate(0.000000,1440.000000) scale(0.100000,-0.100000)"
fill="#000000" stroke="none">
<path d="M5693 14343 c7 -69 32 -107 75 -111 24 -2 34 3 47 22 20 30 13 58
-22 86 -17 13 -33 18 -49 14 -21 -5 -24 -3 -24 20 0 17 -5 26 -16 26 -14 0
-16 -8 -11 -57z m95 -25 c27 -27 2 -75 -32 -62 -19 7 -39 50 -30 65 8 13 48
11 62 -3z"/>
<path d="M11322 14328 c-21 -40 -54 -106 -72 -145 l-33 -73 -91 2 c-150 3
-250 -21 -220 -52 8 -8 29 -8 75 -1 71 12 169 14 193 5 13 -5 3 -31 -54 -142
-38 -76 -82 -175 -99 -222 -16 -47 -55 -140 -85 -207 -30 -67 -56 -135 -58
-150 -3 -25 0 -28 23 -26 15 1 71 27 125 59 55 31 133 76 174 99 41 24 158 91
260 150 136 79 189 104 200 98 18 -12 75 -124 109 -216 14 -39 31 -72 38 -74
41 -14 4 121 -69 256 -25 45 -37 76 -30 80 6 3 73 42 151 86 126 72 140 83
141 107 0 27 -3 26 -161 -66 l-162 -94 -91 92 c-91 92 -185 152 -288 186 -21
6 -38 14 -38 16 0 2 33 68 72 147 40 78 74 145 76 150 2 4 -8 7 -21 7 -21 0
-32 -12 -65 -72z m43 -328 c117 -57 265 -189 252 -223 -3 -7 -63 -46 -133 -87
-71 -40 -176 -101 -234 -135 -58 -34 -149 -88 -203 -119 -54 -32 -101 -55
-104 -52 -4 3 14 52 40 108 25 57 57 135 72 173 15 39 61 141 103 228 88 182
72 174 207 107z"/>
<path d="M5530 14341 c0 -5 4 -21 10 -36 8 -22 7 -27 -15 -37 -34 -16 -31 -32
4 -25 27 6 31 3 42 -28 7 -19 19 -35 26 -35 16 0 16 0 -2 43 -14 34 -14 37 5
47 28 15 25 34 -4 26 -19 -5 -26 -1 -36 24 -12 28 -30 41 -30 21z"/>
<path d="M10313 14248 c-6 -7 -29 -49 -52 -93 -40 -77 -44 -82 -124 -129 -96
-57 -117 -74 -117 -93 0 -22 17 -15 118 45 l96 57 111 0 c91 0 110 3 110 15 0
12 -18 16 -82 20 -45 3 -85 9 -90 13 -4 5 10 41 31 81 35 65 40 96 17 96 -5 0
-13 -6 -18 -12z"/>
<path d="M5131 14233 c-22 -19 -41 -83 -24 -83 5 0 16 15 24 33 8 19 22 33 36
35 32 5 39 -31 14 -72 -25 -40 -20 -48 20 -32 27 10 33 8 46 -9 25 -34 11 -95
-31 -131 -41 -35 -38 -51 5 -28 38 19 59 62 59 118 0 39 -4 49 -30 68 -23 16
-30 30 -30 54 0 23 -7 38 -22 48 -29 20 -41 20 -67 -1z"/>
<path d="M5387 14233 c-4 -3 -7 -17 -7 -30 0 -26 -7 -28 -34 -8 -34 26 -40 3
-6 -25 32 -26 32 -28 22 -73 -7 -37 -7 -47 3 -47 7 0 16 16 19 35 8 40 8 40
40 19 37 -23 41 1 5 27 -29 20 -30 25 -24 65 6 40 -1 54 -18 37z"/>
<path d="M4960 14101 c-40 -17 -66 -41 -42 -41 18 0 112 43 112 51 0 13 -19
10 -70 -10z"/>
<path d="M2231 14084 c-17 -14 -31 -32 -31 -39 0 -26 21 -26 52 0 36 30 48 22
48 -33 0 -46 -23 -86 -65 -112 -58 -36 -44 -54 43 -58 67 -3 72 -1 72 18 0 16
-6 20 -30 20 l-29 0 24 36 c14 20 26 49 27 63 6 119 -41 164 -111 105z"/>
<path d="M4849 14018 c-1 -7 -1 -37 1 -65 1 -29 -1 -53 -5 -53 -3 0 -26 11
-50 25 -65 39 -65 12 0 -29 l55 -36 0 -60 c0 -33 4 -60 10 -60 6 0 10 53 10
139 0 83 -4 142 -10 146 -5 3 -11 0 -11 -7z"/>
<path d="M5000 14011 c-38 -16 -66 -41 -44 -41 18 0 124 44 124 51 0 14 -31
10 -80 -10z"/>
<path d="M665 13967 c-9 -12 -26 -53 -38 -92 -31 -100 -31 -305 1 -385 25 -63
64 -110 92 -110 26 0 25 12 -4 47 -40 49 -57 91 -66 173 -13 118 14 304 51
345 14 14 11 32 -6 39 -8 3 -21 -4 -30 -17z"/>
<path d="M8115 13971 c-3 -6 -4 -12 -1 -12 3 -1 11 -3 16 -4 6 -1 13 -3 16 -4
3 0 -4 -16 -15 -35 -12 -18 -21 -38 -21 -44 0 -17 49 -27 63 -13 9 9 6 13 -10
17 -21 6 -21 8 -7 29 21 32 15 69 -13 73 -11 2 -24 -2 -28 -7z"/>
<path d="M1163 13954 c-3 -9 9 -46 27 -83 25 -50 34 -83 38 -137 5 -86 -12
-248 -34 -307 -29 -79 -29 -79 -3 -75 33 4 55 70 75 228 19 151 13 202 -37
311 -32 69 -55 91 -66 63z"/>
<path d="M427 13934 c-26 -26 -35 -53 -39 -128 -3 -36 -6 -41 -36 -48 -45 -12
-41 -44 5 -42 39 2 43 -9 43 -143 0 -110 5 -133 26 -133 17 0 17 -4 14 157
l-2 132 33 3 c23 2 35 9 37 21 3 14 -4 17 -39 17 l-41 0 4 55 c4 43 11 62 32
84 47 49 10 72 -37 25z"/>
<path d="M2767 13884 c-11 -11 -8 -249 4 -349 11 -95 21 -117 41 -97 7 7 25
12 41 12 111 0 196 154 138 247 -31 49 -64 53 -173 17 -15 -5 -18 4 -20 82 -3
80 -12 107 -31 88z m173 -194 c25 -13 36 -72 20 -109 -16 -40 -60 -80 -97 -87
-38 -7 -42 -2 -52 83 -10 78 -6 85 54 107 50 18 52 18 75 6z"/>
<path d="M7358 13858 c-70 -96 -94 -175 -83 -283 14 -151 39 -207 114 -259 62
-43 61 -24 -2 36 -64 61 -75 91 -84 223 -7 111 10 180 62 248 19 25 35 51 35
56 0 20 -18 11 -42 -21z"/>
<path d="M9028 13885 c-4 -4 6 -30 22 -59 89 -160 77 -358 -30 -479 -36 -41
-35 -59 1 -33 79 55 134 231 111 356 -19 104 -83 235 -104 215z"/>
<path d="M10405 13881 c-9 -15 79 -176 98 -179 27 -5 21 22 -24 109 -38 73
-59 93 -74 70z"/>
<path d="M8415 13838 c-102 -117 -122 -289 -49 -415 28 -49 90 -103 119 -103
15 0 7 11 -33 46 -81 71 -97 109 -97 229 0 112 14 151 80 224 34 38 44 61 26
61 -5 0 -26 -19 -46 -42z"/>
<path d="M8000 13864 c0 -4 13 -28 29 -53 41 -64 62 -145 63 -239 0 -67 -4
-88 -28 -138 -16 -32 -46 -75 -66 -95 -39 -37 -45 -49 -28 -49 21 0 79 63 111
122 33 61 34 67 33 168 -1 111 -19 181 -67 251 -21 31 -47 49 -47 33z"/>
<path d="M3487 13844 c-4 -4 -7 -38 -7 -76 l0 -68 -30 0 c-18 0 -33 -6 -37
-15 -8 -23 3 -29 42 -27 l35 3 0 -64 c0 -71 17 -100 40 -72 9 10 11 34 7 75
l-5 59 36 6 c21 4 44 7 52 8 8 1 15 9 15 17 0 11 -14 16 -52 18 -57 3 -58 5
-65 101 -3 33 -17 49 -31 35z"/>
<path d="M2498 13835 c-3 -4 -4 -33 -1 -66 l6 -59 -32 -6 c-21 -5 -31 -12 -31
-25 0 -15 7 -19 35 -19 l34 0 3 -62 c2 -48 7 -63 18 -63 12 0 16 15 18 67 l3
67 52 3 c44 3 52 6 52 23 0 18 -7 20 -53 20 -58 -1 -59 0 -64 80 -3 37 -23 57
-40 40z"/>
<path d="M1550 13793 c-82 -11 -90 -14 -90 -35 0 -18 4 -20 38 -14 20 3 70 6
110 6 70 0 90 10 55 28 -23 12 -81 19 -113 15z"/>
<path d="M3807 13779 c-47 -25 -88 -86 -94 -141 -9 -85 55 -148 150 -148 54 0
87 13 87 36 0 12 -10 14 -59 8 -72 -8 -115 13 -132 63 -9 28 -7 40 10 76 22
45 80 87 120 87 14 0 21 6 21 20 0 27 -51 26 -103 -1z"/>
<path d="M10290 13773 c0 -20 54 -118 71 -128 6 -4 15 -3 21 3 14 14 -51 136
-74 140 -12 2 -18 -3 -18 -15z"/>
<path d="M1874 13761 c-95 -59 -129 -169 -72 -231 42 -45 99 -45 131 0 14 21
15 20 35 -15 12 -20 29 -35 40 -35 29 0 34 12 13 34 -18 20 -61 130 -61 158 0
32 -23 89 -39 97 -13 7 -26 5 -47 -8z m30 -72 c15 -76 0 -149 -30 -149 -59 0
-73 88 -23 145 17 19 35 35 39 35 4 0 10 -14 14 -31z"/>
<path d="M2219 13723 c-18 -27 -34 -50 -36 -52 -2 -3 -20 12 -41 32 -21 20
-43 37 -50 37 -21 0 -13 -36 14 -61 47 -44 47 -51 -2 -133 -29 -46 -44 -81
-40 -91 10 -28 28 -12 75 65 50 82 45 83 103 -17 34 -60 45 -70 60 -55 14 14
-3 56 -54 129 l-39 56 35 52 c20 28 36 59 36 68 0 32 -29 17 -61 -30z"/>
<path d="M845 13750 c-7 -12 -2 -22 37 -72 l28 -36 -40 -76 c-44 -83 -50 -109
-22 -104 9 2 31 30 49 63 17 33 36 61 41 63 6 2 27 -27 47 -63 37 -66 61 -80
58 -33 0 13 -18 53 -39 88 -40 69 -41 62 6 137 12 18 12 25 2 35 -10 10 -19 5
-47 -27 -33 -39 -34 -40 -49 -20 -9 11 -21 28 -27 38 -11 19 -34 23 -44 7z"/>
<path d="M3057 13753 c-12 -12 -8 -21 33 -68 22 -25 40 -51 40 -56 0 -5 -18
-45 -40 -89 -44 -88 -49 -113 -22 -108 10 2 31 32 52 75 19 39 38 74 42 78 3
4 25 -17 48 -47 40 -50 75 -69 75 -40 0 6 -22 41 -48 77 l-49 66 33 50 c25 39
29 53 20 62 -10 9 -21 2 -50 -31 l-38 -44 -35 41 c-34 40 -48 48 -61 34z"/>
<path d="M7695 13698 c-4 -9 -5 -24 -3 -34 2 -13 -4 -20 -20 -22 -28 -4 -24
-26 6 -30 18 -3 22 -10 22 -43 0 -21 5 -39 10 -39 6 0 10 18 10 40 0 39 1 40
35 40 44 0 46 18 3 22 -28 3 -33 7 -36 33 -4 37 -19 54 -27 33z"/>
<path d="M8499 13647 c-17 -22 -17 -22 -38 -3 -30 27 -39 11 -11 -19 l23 -25
-26 -38 c-39 -55 -33 -74 9 -28 l34 40 30 -35 c34 -40 40 -22 9 28 -18 29 -20
39 -10 59 21 47 8 60 -20 21z"/>
<path d="M9046 13643 c-10 -40 -27 -83 -35 -83 -3 0 -17 18 -31 40 -14 22 -30
40 -37 40 -18 0 -17 -4 22 -63 l36 -54 -26 -54 c-13 -30 -25 -60 -25 -66 0
-19 20 -16 27 5 3 9 23 55 45 101 40 88 58 161 40 161 -5 0 -13 -12 -16 -27z"/>
<path d="M7400 13651 c0 -4 9 -20 20 -34 l20 -25 -21 -36 c-11 -19 -19 -43
-17 -53 3 -14 9 -10 27 20 13 20 26 37 29 37 4 0 16 -15 26 -33 15 -25 20 -28
24 -14 2 9 -5 32 -16 50 -18 28 -19 35 -7 57 18 32 18 40 1 40 -8 0 -18 -9
-21 -21 l-7 -21 -22 21 c-24 22 -36 26 -36 12z"/>
<path d="M8680 13631 c0 -10 48 -21 91 -21 31 0 39 14 13 24 -24 9 -104 7
-104 -3z"/>
<path d="M1523 13621 c-58 -7 -68 -13 -60 -35 5 -13 18 -15 69 -10 87 8 140
23 135 37 -4 14 -69 18 -144 8z"/>
<path d="M7900 13623 c0 -3 14 -28 32 -55 l31 -50 -21 -44 c-25 -50 -27 -64
-11 -64 12 0 109 201 102 212 -8 15 -21 8 -26 -14 -4 -13 -12 -31 -20 -41 -12
-18 -15 -16 -40 22 -24 36 -47 53 -47 34z"/>
<path d="M8172 13618 c5 -15 108 -24 108 -10 0 14 -26 22 -72 22 -27 0 -38 -4
-36 -12z"/>
<path d="M10426 13527 c-76 -43 -99 -135 -47 -188 16 -16 34 -29 40 -29 23 0
22 23 -3 49 -30 31 -32 50 -11 91 38 73 153 81 206 16 14 -17 20 -18 30 -9 10
10 10 17 0 36 -32 59 -141 77 -215 34z"/>
<path d="M4888 13460 c-427 -72 -736 -440 -732 -870 3 -258 91 -461 277 -636
98 -93 195 -151 327 -195 84 -28 112 -33 232 -37 117 -4 152 -1 232 17 296 69
541 289 637 575 39 118 55 261 40 375 -59 459 -430 785 -886 780 -44 -1 -101
-5 -127 -9z m335 -64 c182 -46 346 -149 449 -283 26 -35 38 -58 31 -60 -7 -3
-23 -13 -37 -24 -44 -35 -6 -68 40 -34 10 8 24 15 30 15 16 0 70 -123 95 -216
30 -110 30 -297 1 -407 -76 -280 -290 -500 -572 -589 -66 -20 -95 -23 -235
-23 -154 0 -163 2 -254 33 -124 43 -217 99 -308 185 -136 129 -218 285 -250
476 -42 246 43 512 222 696 212 217 504 303 788 231z"/>
<path d="M5023 13118 c-11 -13 -24 -33 -28 -45 -5 -19 -10 -21 -25 -13 -13 7
-21 6 -30 -5 -10 -12 -3 -26 39 -76 29 -34 59 -75 67 -90 15 -30 54 -41 54
-15 0 7 -11 38 -24 67 -13 30 -27 71 -30 91 -6 32 -3 39 19 54 14 9 25 25 25
35 0 27 -41 25 -67 -3z"/>
<path d="M5557 12962 c-35 -39 -13 -62 33 -35 17 10 29 24 28 33 -5 22 -42 24
-61 2z"/>
<path d="M5432 12873 c-29 -19 -42 -34 -40 -47 2 -11 8 -21 13 -23 16 -5 110
61 110 77 0 25 -38 22 -83 -7z"/>
<path d="M5289 12790 c-52 -27 -66 -47 -48 -66 13 -12 21 -10 63 16 30 20 46
36 44 47 -4 24 -18 24 -59 3z"/>
<path d="M5143 12699 c-59 -38 -31 -77 29 -42 34 20 45 56 18 60 -8 2 -30 -6
-47 -18z"/>
<path d="M4995 12655 c-41 -40 -30 -92 24 -114 24 -10 34 -10 59 3 55 29 47
103 -14 126 -36 14 -42 13 -69 -15z"/>
<path d="M10554 13312 c-50 -32 -74 -70 -74 -116 0 -22 4 -46 8 -52 25 -38
114 -46 155 -14 70 55 89 152 34 178 -49 23 -90 25 -123 4z m109 -39 c17 -10
5 -55 -24 -88 -28 -32 -37 -36 -73 -33 -38 3 -41 6 -44 34 -3 34 27 80 62 94
19 7 59 4 79 -7z"/>
<path d="M9616 13222 c-3 -5 -2 -32 3 -61 l8 -52 -43 -36 c-42 -33 -52 -64
-16 -44 22 12 156 131 160 143 7 16 -25 8 -43 -12 -26 -29 -34 -25 -41 20 -7
41 -18 58 -28 42z"/>
<path d="M10731 13114 c-23 -30 -25 -41 -12 -98 8 -34 7 -41 -14 -62 -27 -27
-46 -30 -78 -13 -30 16 -37 28 -37 70 0 20 -3 39 -7 42 -14 14 -33 -17 -33
-55 0 -103 140 -142 203 -57 17 24 18 32 7 83 -6 30 -9 60 -5 66 13 20 44 9
74 -26 19 -24 35 -35 45 -31 25 10 19 27 -24 69 -50 47 -89 51 -119 12z"/>
<path d="M9895 13118 c-36 -20 -145 -110 -145 -119 0 -19 23 -7 88 46 37 31
68 51 70 45 2 -5 -1 -40 -7 -77 -6 -42 -7 -71 -1 -77 11 -11 14 -3 29 85 19
111 14 124 -34 97z"/>
<path d="M10271 13088 c-5 -13 -34 -75 -64 -138 -112 -232 -248 -411 -431
-567 -121 -104 -247 -176 -296 -171 l-29 3 204 394 c112 217 201 399 198 404
-3 5 -9 5 -13 0 -5 -4 -99 -183 -210 -398 -111 -214 -204 -392 -205 -394 -2
-2 -62 27 -134 63 -71 36 -134 66 -140 66 -32 0 2 -23 124 -86 74 -38 135 -72
135 -75 0 -4 -26 -14 -57 -23 -87 -24 -214 -101 -301 -181 -115 -107 -270
-333 -354 -514 -63 -135 -38 -128 29 9 59 121 198 334 271 414 60 67 154 146
217 183 70 42 159 76 163 62 2 -5 -14 -41 -36 -81 -22 -40 -101 -194 -177
-343 -76 -148 -162 -316 -192 -372 -30 -56 -49 -104 -44 -107 5 -4 53 78 107
181 53 104 138 267 189 363 51 96 115 220 143 275 28 55 55 106 60 113 7 11
50 -7 195 -82 106 -55 188 -92 192 -87 3 6 -25 26 -62 45 -162 81 -253 130
-253 135 1 3 35 22 78 41 167 76 393 293 530 506 72 114 192 345 192 372 0 20
-20 13 -29 -10z"/>
<path d="M10927 12763 l-22 -48 -95 0 c-79 0 -95 -3 -98 -16 -2 -14 10 -17 78
-21 44 -3 83 -8 87 -12 5 -4 -4 -30 -20 -57 -31 -57 -35 -82 -10 -77 10 2 34
32 53 68 l35 64 63 -3 c57 -2 63 -1 60 16 -2 12 -13 19 -33 21 -73 6 -76 8
-59 48 16 37 13 64 -6 64 -6 0 -20 -21 -33 -47z"/>
<path d="M1115 12606 c-55 -25 -95 -81 -301 -416 -88 -143 -110 -163 -181
-170 -67 -6 -80 -28 -25 -44 77 -22 142 26 232 171 147 238 245 385 267 403
32 25 85 25 140 0 94 -42 116 -101 71 -190 -20 -40 -27 -45 -61 -48 -27 -2
-55 6 -101 29 -38 19 -70 30 -80 26 -27 -11 -16 -24 53 -64 82 -49 105 -79
105 -141 0 -64 -27 -109 -88 -146 -89 -56 -220 -43 -253 24 -15 30 -36 33 -41
6 -12 -59 67 -109 169 -108 155 1 270 109 257 239 -3 27 -9 56 -13 66 -5 12
-2 17 10 17 29 0 81 62 99 118 32 95 3 156 -96 204 -69 33 -124 42 -163 24z"/>
<path d="M9370 12417 c-35 -18 -50 -53 -38 -87 11 -34 30 -43 63 -30 27 10 38
40 33 91 -3 38 -20 46 -58 26z m40 -40 c0 -33 -23 -62 -44 -54 -20 8 -21 41 0
61 23 23 44 20 44 -7z"/>
<path d="M7673 12380 c-37 -17 -63 -35 -63 -45 0 -21 13 -19 71 11 40 20 54
23 65 13 8 -6 38 -55 67 -108 30 -53 100 -175 157 -271 188 -320 381 -654 383
-663 1 -5 -24 -30 -56 -55 -41 -31 -55 -48 -48 -55 7 -7 18 -6 36 3 47 25 105
81 105 101 0 18 -142 269 -370 654 -46 77 -116 199 -157 270 -68 119 -107 175
-122 175 -3 0 -34 -13 -68 -30z"/>
<path d="M11125 12369 c-4 -6 9 -36 28 -67 19 -31 44 -76 56 -99 12 -24 28
-43 36 -43 32 0 9 65 -55 159 -41 61 -53 70 -65 50z"/>
<path d="M9976 12213 c5 -36 3 -39 -30 -57 -52 -27 -49 -53 3 -27 l39 20 6
-29 c9 -47 30 -38 22 9 -5 34 -3 41 14 46 30 9 26 37 -4 29 -19 -4 -25 -1 -30
20 -10 41 -27 31 -20 -11z"/>
<path d="M2935 12158 c-60 -83 -85 -107 -164 -159 -83 -55 -179 -89 -252 -89
-113 0 -286 -98 -350 -199 -35 -54 -36 -73 -8 -146 26 -69 59 -111 83 -102 29
11 29 36 2 98 -14 33 -26 68 -26 78 0 33 77 107 150 145 56 30 91 40 168 51
197 26 344 114 448 266 39 56 46 73 38 87 -22 35 -50 26 -89 -30z"/>
<path d="M9770 12094 c0 -4 22 -32 48 -63 72 -83 72 -82 4 -75 -35 4 -67 2
-78 -4 -17 -10 -17 -11 6 -16 54 -11 180 -14 180 -5 0 16 -133 167 -147 168
-7 1 -13 -2 -13 -5z"/>
<path d="M7608 11953 c-35 -14 -47 -31 -32 -46 4 -3 19 0 35 9 16 8 29 11 30
7 0 -5 0 -52 -1 -106 -2 -117 6 -125 84 -82 65 36 73 42 60 55 -7 7 -25 2 -57
-15 l-47 -24 0 109 c0 123 0 123 -72 93z"/>
<path d="M3656 11943 c-3 -3 -6 -19 -6 -33 0 -73 -11 -91 -66 -117 -49 -22
-70 -43 -44 -43 14 0 232 99 244 111 24 23 -10 20 -60 -5 l-56 -27 6 55 c7 49
-1 75 -18 59z"/>
<path d="M11367 11938 c-25 -20 -37 -64 -30 -113 7 -53 -7 -75 -48 -75 -48 0
-58 45 -34 143 6 21 4 27 -9 27 -22 0 -46 -52 -46 -100 0 -86 55 -135 121
-107 50 21 58 35 61 117 3 70 5 75 26 78 25 4 62 -23 62 -43 0 -19 24 -35 39
-26 17 11 -8 72 -40 95 -28 19 -79 21 -102 4z"/>
<path d="M6742 11833 c-28 -21 -54 -44 -57 -52 -3 -8 6 -32 21 -54 14 -22 47
-76 73 -121 213 -365 304 -522 340 -591 24 -44 78 -137 119 -207 60 -102 80
-128 98 -128 33 0 124 41 124 56 0 18 -19 18 -63 -1 -20 -8 -43 -15 -51 -15
-15 0 -104 142 -191 305 -54 100 -254 447 -363 628 l-70 118 49 37 c47 35 63
62 36 62 -7 0 -36 -17 -65 -37z"/>
<path d="M3850 11832 c0 -16 79 -84 92 -80 9 3 -1 19 -28 46 -39 39 -64 53
-64 34z"/>
<path d="M2750 11804 c-14 -16 4 -69 95 -274 105 -234 217 -365 305 -358 28 2
36 8 38 26 3 18 -5 26 -40 41 -77 33 -144 124 -230 314 -33 73 -69 157 -80
187 -11 30 -25 61 -31 68 -13 17 -42 15 -57 -4z"/>
<path d="M3780 11762 c0 -13 96 -103 103 -96 8 9 -75 104 -90 104 -7 0 -13 -4
-13 -8z"/>
<path d="M11647 11763 c-4 -3 -7 -12 -7 -20 0 -15 26 -18 34 -4 7 11 -18 33
-27 24z"/>
<path d="M7002 11738 c-7 -7 -12 -17 -12 -24 0 -7 -8 -10 -20 -7 -28 7 -25 -6
15 -72 19 -32 37 -67 41 -77 3 -11 13 -18 22 -15 19 4 20 2 -10 84 -18 49 -20
65 -10 75 9 9 17 7 38 -13 14 -13 32 -36 40 -51 15 -29 44 -38 44 -15 0 8 -13
32 -29 54 -48 66 -92 88 -119 61z"/>
<path d="M2471 11721 c-8 -14 4 -47 58 -157 140 -286 172 -400 142 -512 -11
-38 -15 -42 -42 -42 -17 0 -39 5 -50 11 -29 15 -59 2 -59 -25 0 -36 34 -59 93
-63 70 -5 111 20 128 79 19 68 16 204 -5 268 -28 82 -162 378 -191 422 -28 41
-58 50 -74 19z"/>
<path d="M7408 11704 c-48 -24 -57 -37 -38 -49 13 -8 116 47 113 60 -4 18 -27
15 -75 -11z"/>
<path d="M11460 11689 c-81 -39 -130 -73 -130 -91 0 -15 23 -8 131 45 69 33
108 57 106 66 -4 25 -21 22 -107 -20z"/>
<path d="M4010 11694 c0 -12 7 -14 28 -10 38 9 71 -16 56 -41 -9 -13 -24 -18
-58 -17 -25 0 -46 -2 -46 -5 0 -2 10 -15 22 -28 l22 -23 -20 -27 c-30 -40 -77
-49 -125 -24 -45 24 -49 25 -49 11 0 -18 64 -50 98 -50 62 0 112 40 112 89 0
11 9 22 20 26 49 16 66 68 32 98 -25 22 -92 23 -92 1z"/>
<path d="M7620 11451 c-275 -160 -426 -253 -428 -265 -3 -12 1 -17 11 -14 33
7 877 503 877 515 0 7 -8 13 -17 12 -10 -1 -209 -112 -443 -248z"/>
<path d="M7115 11530 c-117 -62 -149 -88 -120 -96 14 -5 278 139 283 154 8 25
-37 10 -163 -58z"/>
<path d="M11550 11558 c-30 -22 -74 -49 -98 -60 -41 -19 -62 -42 -48 -55 3 -3
35 4 71 16 86 28 145 28 145 2 0 -24 -44 -58 -127 -100 -45 -22 -61 -35 -57
-46 9 -21 15 -20 103 25 103 52 146 104 121 150 -6 11 -24 23 -41 27 -35 7
-37 16 -7 35 14 9 19 20 15 31 -9 23 -14 21 -77 -25z"/>
<path d="M4120 11498 c0 -36 -16 -52 -60 -63 -50 -12 -49 -31 1 -27 35 3 36 3
31 -27 -6 -44 14 -39 25 6 7 31 14 38 46 47 44 13 46 33 4 28 -26 -3 -28 -1
-25 24 2 15 -2 29 -9 31 -8 3 -13 -4 -13 -19z"/>
<path d="M7120 11441 c-23 -43 -2 -71 26 -33 21 28 36 2 41 -72 3 -37 9 -68
12 -71 12 -7 91 34 97 50 10 25 -1 28 -35 10 -17 -8 -31 -14 -31 -12 0 31 -24
115 -37 129 -21 24 -60 23 -73 -1z"/>
<path d="M4325 11360 c-22 -24 -38 -25 -55 -5 -7 8 -17 12 -22 9 -5 -3 0 -16
11 -28 l21 -22 -30 -29 c-16 -15 -27 -32 -24 -37 4 -5 19 3 35 18 26 25 32 27
50 16 26 -17 37 -7 22 17 -10 15 -8 22 8 37 19 17 26 44 11 44 -5 0 -17 -9
-27 -20z"/>
<path d="M7666 11326 c-41 -44 -59 -86 -49 -114 19 -54 73 -68 124 -31 l29 21
14 -34 c26 -64 27 -74 7 -93 -16 -14 -29 -16 -66 -11 -36 6 -45 4 -45 -8 0
-18 60 -37 92 -29 38 9 68 43 68 77 0 33 -108 259 -125 262 -5 1 -28 -17 -49
-40z m63 -52 c15 -34 7 -58 -25 -73 -50 -22 -74 33 -34 77 27 29 44 28 59 -4z"/>
<path d="M11709 11299 l-34 -71 -74 -3 c-70 -3 -104 -16 -87 -32 4 -5 39 -10
78 -13 l70 -5 -43 -83 c-32 -63 -39 -86 -31 -94 9 -9 16 -9 26 2 18 19 86 151
86 167 0 8 26 13 83 15 65 2 82 6 82 18 0 12 -15 16 -67 18 -38 2 -68 7 -68
12 0 5 11 35 25 66 14 31 22 60 19 65 -13 22 -33 4 -65 -62z"/>
<path d="M4452 11241 c-70 -24 -112 -64 -112 -108 0 -69 86 -81 111 -16 10 26
9 32 -19 84 -6 13 62 29 122 29 56 1 59 2 42 15 -26 20 -79 18 -144 -4z m-22
-96 c0 -46 -62 -62 -68 -18 -4 31 34 69 54 52 8 -6 14 -22 14 -34z"/>
<path d="M6731 11224 c-12 -15 -21 -31 -21 -35 0 -11 128 -228 148 -251 13
-16 17 -16 44 -2 35 18 68 69 68 107 0 58 -49 127 -90 127 -22 0 -30 7 -43 40
-14 36 -19 40 -50 40 -26 0 -41 -7 -56 -26z m73 -20 c10 -26 7 -51 -8 -63 -21
-17 -53 43 -35 65 15 19 35 18 43 -2z m101 -84 c9 -10 20 -39 22 -62 4 -34 1
-49 -16 -68 l-21 -25 -23 27 c-12 15 -31 44 -42 64 l-19 36 27 24 c34 29 48
30 72 4z"/>
<path d="M1280 11066 c-41 -13 -133 -44 -205 -71 -133 -49 -274 -94 -448 -141
-56 -16 -101 -34 -104 -42 -19 -48 114 -647 197 -886 22 -65 25 -89 10 -84
-10 3 -54 36 -217 166 -58 45 -111 82 -118 82 -23 0 -27 -19 -8 -34 10 -8 45
-37 78 -64 33 -27 101 -80 150 -117 50 -37 107 -84 128 -103 33 -33 39 -35 52
-21 14 14 11 32 -34 180 -64 213 -102 357 -135 499 -33 149 -67 350 -61 360 3
5 20 11 38 15 94 19 340 97 549 174 76 27 154 53 173 57 37 7 55 28 39 44 -5
4 -43 -2 -84 -14z"/>
<path d="M6580 11078 c0 -7 9 -26 20 -43 l20 -30 -23 -17 c-29 -22 -11 -46 22
-28 19 10 24 7 39 -19 9 -17 25 -31 35 -31 22 0 21 8 -2 47 -20 31 -20 31 2
46 18 12 20 18 9 28 -10 11 -17 11 -32 2 -16 -11 -21 -8 -40 22 -21 34 -50 47
-50 23z"/>
<path d="M6437 10993 c-3 -5 -8 -28 -12 -51 -6 -39 -10 -43 -29 -38 -60 18
-76 18 -76 4 0 -8 23 -24 50 -35 l51 -22 -7 -74 c-4 -51 -3 -76 5 -81 15 -10
31 35 31 90 0 24 4 44 9 44 5 0 30 -9 56 -20 56 -24 65 -25 65 -5 0 9 -24 26
-60 42 l-60 26 0 63 c0 56 -10 80 -23 57z"/>
<path d="M9385 10906 c-112 -17 -140 -24 -190 -49 -111 -54 -139 -139 -99
-292 34 -131 52 -277 60 -470 l7 -170 -31 -90 c-43 -127 -116 -281 -159 -333
-56 -68 -79 -88 -213 -177 -69 -46 -199 -134 -290 -195 -91 -62 -184 -123
-208 -137 -23 -14 -47 -34 -53 -46 -26 -47 45 -293 107 -374 14 -18 42 -44 62
-57 533 -343 810 -466 1225 -545 156 -30 256 -13 346 59 55 45 100 112 122
182 l18 60 -29 111 c-16 62 -46 191 -66 287 -34 166 -36 179 -24 245 7 39 29
117 51 174 67 180 138 288 288 439 99 99 168 147 361 252 74 40 145 85 158 99
41 46 94 163 87 195 -8 46 -43 94 -93 128 -26 17 -81 63 -122 102 -145 138
-181 164 -439 311 -46 27 -96 59 -112 72 -41 35 -322 175 -404 202 -88 28
-235 35 -360 17z m347 -56 c98 -33 368 -170 385 -197 16 -24 55 -48 226 -137
141 -73 154 -82 299 -213 68 -62 142 -126 166 -143 24 -17 50 -47 58 -66 14
-33 13 -39 -12 -94 -42 -95 -40 -94 -208 -86 -79 4 -173 14 -208 21 -34 8
-139 28 -231 45 -182 33 -251 53 -365 106 -185 85 -496 287 -591 384 -72 74
-131 173 -131 221 0 46 34 97 83 125 110 61 391 79 529 34z m-367 -526 c33
-22 89 -61 125 -86 77 -53 243 -147 343 -193 108 -50 183 -72 340 -100 78 -13
183 -34 232 -44 50 -11 146 -23 213 -27 l122 -7 -107 -59 c-183 -101 -263
-160 -374 -275 -100 -104 -177 -206 -215 -285 -10 -21 -20 -38 -23 -38 -3 1
-19 24 -36 52 -35 59 -59 78 -76 61 -9 -9 -5 -20 19 -48 42 -48 68 -136 52
-176 -11 -26 -17 -29 -59 -29 -66 0 -265 28 -330 46 -30 9 -82 29 -115 46 -89
44 -275 170 -317 215 -32 33 -109 144 -109 157 0 8 83 36 130 44 30 5 45 13
45 22 0 17 -45 20 -108 7 l-37 -8 26 58 c14 32 40 94 58 138 l31 80 -1 190
c-1 117 -8 232 -18 298 -9 59 -16 115 -16 124 0 10 27 -10 73 -54 39 -38 99
-88 132 -109z m-309 -881 c44 -76 100 -129 218 -208 208 -138 274 -163 520
-194 81 -11 149 -21 152 -23 2 -3 -4 -39 -13 -82 -18 -85 -19 -81 31 -325 15
-68 38 -170 53 -225 23 -89 25 -107 15 -153 -13 -62 -56 -128 -110 -172 -86
-67 -163 -78 -337 -45 -177 34 -290 65 -420 117 -144 58 -368 170 -475 237
-47 30 -132 82 -190 117 -58 35 -121 80 -140 102 -43 46 -102 192 -108 266
l-4 52 78 12 c104 16 114 20 114 38 0 13 -10 15 -70 9 -38 -4 -70 -5 -70 -3 0
2 134 94 298 203 199 133 317 219 357 260 33 33 63 61 67 62 3 1 18 -19 34
-45z"/>
<path d="M9274 9605 c-9 -23 -2 -27 73 -41 88 -17 103 -17 103 0 0 20 -10 25
-77 37 -32 5 -66 12 -76 15 -10 3 -20 -1 -23 -11z"/>
<path d="M9503 9545 c-3 -9 -4 -17 -2 -19 13 -12 111 -56 124 -56 35 0 11 32
-45 60 -69 35 -69 35 -77 15z"/>
<path d="M9700 9446 c0 -14 119 -96 140 -96 26 0 1 37 -49 72 -56 39 -91 48
-91 24z"/>
<path d="M8537 8974 c-10 -3 -17 -13 -15 -22 3 -14 13 -16 54 -14 27 2 80 -4
117 -12 87 -20 99 -20 95 1 -2 11 -21 22 -48 30 -50 15 -175 25 -203 17z"/>
<path d="M8880 8887 c0 -13 176 -107 200 -107 6 0 10 8 8 18 -4 20 -151 101
-185 102 -13 0 -23 -6 -23 -13z"/>
<path d="M9163 8764 c-3 -8 -4 -16 -2 -18 21 -15 191 -88 195 -83 15 14 -9 38
-68 68 -86 44 -118 52 -125 33z"/>
<path d="M9470 8616 c0 -17 100 -115 117 -116 31 0 20 27 -31 76 -55 53 -86
68 -86 40z"/>
<path d="M9684 8449 c-7 -13 -7 -13 75 -78 67 -54 81 -60 81 -36 0 17 -16 34
-81 88 -48 39 -63 44 -75 26z"/>
<path d="M9854 8276 c-7 -18 64 -146 82 -146 24 0 15 40 -22 101 -36 59 -50
70 -60 45z"/>
<path d="M6202 10814 c-61 -35 -72 -47 -52 -59 13 -8 130 57 130 72 0 24 -17
21 -78 -13z"/>
<path d="M6250 10734 c-54 -34 -71 -60 -38 -58 27 2 118 64 118 80 0 22 -21
16 -80 -22z"/>
<path d="M6001 10684 c-51 -65 7 -174 91 -174 40 0 78 27 78 55 0 21 -16 19
-40 -5 -21 -21 -55 -26 -65 -10 -4 6 3 25 14 44 25 40 27 79 5 100 -23 24 -60
19 -83 -10z m59 -37 c-1 -25 -24 -60 -33 -50 -11 11 -8 58 5 71 15 15 28 6 28
-21z"/>
<path d="M1164 10666 c-8 -22 0 -71 37 -223 17 -68 29 -130 26 -137 -4 -11
-128 -46 -254 -71 l-33 -7 0 49 c0 73 18 165 51 270 20 63 27 99 21 105 -18
18 -31 -2 -62 -97 -44 -139 -68 -321 -45 -351 12 -17 18 -17 88 -6 41 7 114
23 162 36 69 19 88 21 92 10 2 -7 12 -62 22 -121 13 -79 21 -108 32 -108 33 0
19 112 -51 402 -22 89 -43 180 -46 202 -8 47 -30 73 -40 47z"/>
<path d="M5856 10651 c-4 -5 -9 -37 -12 -70 -4 -34 -8 -61 -9 -61 -2 0 -26 16
-55 35 -45 31 -90 45 -90 30 0 -6 120 -247 126 -254 2 -2 10 -1 19 3 13 5 8
20 -30 96 -25 49 -43 90 -41 90 3 0 22 -11 42 -25 44 -30 59 -22 68 36 l6 41
41 -61 c46 -68 56 -78 71 -63 7 7 0 25 -24 59 -19 26 -47 69 -61 95 -30 51
-42 63 -51 49z"/>
<path d="M4495 10590 c-3 -5 -18 -10 -33 -10 -38 0 -121 -66 -149 -119 -27
-51 -30 -121 -8 -174 17 -40 68 -87 96 -87 35 0 87 28 110 59 l22 30 27 -30
c46 -48 90 -31 53 19 -39 53 -51 89 -62 191 -10 97 -21 131 -42 131 -4 0 -11
-4 -14 -10z m-5 -143 c8 -61 9 -90 0 -112 -17 -45 -50 -75 -82 -75 -49 0 -81
85 -58 154 11 36 92 116 115 116 8 0 17 -29 25 -83z"/>
<path d="M6808 10227 c-33 -9 -41 -18 -72 -81 -19 -39 -40 -89 -47 -111 -6
-22 -30 -69 -52 -105 -22 -36 -51 -89 -64 -117 -30 -65 -30 -65 -147 57 -56
60 -92 90 -101 86 -8 -3 -15 -10 -15 -15 0 -16 96 -126 154 -175 31 -26 56
-52 56 -58 0 -10 -17 -41 -166 -303 -37 -66 -102 -187 -145 -269 l-77 -148
-108 0 c-120 1 -199 -14 -199 -38 0 -17 26 -18 141 -5 40 4 88 5 108 1 l36 -7
-62 -122 c-33 -67 -78 -167 -98 -222 -21 -55 -60 -149 -88 -210 -67 -149 -78
-185 -61 -196 8 -4 18 -4 23 1 6 6 15 10 22 10 7 0 168 91 360 201 191 111
355 204 364 206 14 4 28 -17 63 -89 24 -51 52 -117 62 -145 18 -57 31 -71 47
-55 17 17 -10 105 -68 218 -47 94 -51 106 -36 115 9 6 197 115 416 242 329
191 401 237 408 259 8 24 -9 59 -149 300 -88 150 -165 283 -173 295 -12 19
-12 24 8 40 37 31 132 157 132 175 0 20 -12 29 -26 20 -5 -4 -31 -34 -56 -67
-25 -33 -56 -69 -68 -80 -22 -20 -22 -20 -36 0 -8 11 -65 107 -126 213 -61
105 -113 191 -117 191 -3 -1 -23 -6 -43 -12z m141 -237 c85 -146 116 -209 109
-217 -30 -37 -200 -93 -281 -93 -64 0 -143 18 -168 39 -20 16 -20 18 -5 56 9
21 38 75 65 119 26 45 58 108 70 141 26 74 73 166 83 162 5 -1 61 -94 127
-207z m234 -403 c48 -85 87 -156 87 -159 0 -3 -51 -36 -114 -72 -63 -37 -117
-74 -120 -82 -4 -10 20 -63 64 -137 38 -67 66 -125 62 -128 -4 -4 -132 -79
-285 -168 l-278 -160 -92 92 c-92 93 -187 154 -289 187 -21 6 -38 14 -38 16 0
11 111 223 185 354 45 80 108 191 139 248 31 56 60 102 64 102 4 0 32 -9 62
-21 113 -43 321 -15 422 57 18 13 35 23 38 24 3 0 45 -69 93 -153z m180 -313
c31 -54 57 -103 57 -109 0 -14 -198 -127 -210 -120 -12 7 -120 198 -120 211 0
12 191 125 205 121 6 -2 36 -48 68 -103z m-1096 -384 c82 -38 143 -80 208
-146 94 -94 120 -66 -266 -289 -187 -108 -342 -195 -345 -192 -3 2 16 51 42
108 26 57 64 150 84 206 35 91 138 309 163 341 12 15 30 10 114 -28z"/>
<path d="M3733 10164 c-3 -8 -2 -19 4 -25 25 -25 280 -40 781 -46 l512 -6 0
21 c0 11 -4 23 -9 26 -5 4 -229 9 -498 12 -318 3 -535 10 -621 20 -165 17
-161 17 -169 -2z"/>
<path d="M3876 9995 c-7 -5 -25 -62 -41 -125 -15 -63 -54 -200 -87 -303 -32
-104 -58 -195 -58 -203 0 -54 -61 49 -100 171 -24 75 -41 101 -59 91 -17 -11
-13 -46 13 -122 48 -141 113 -247 149 -242 16 2 25 17 39 68 11 36 41 135 68
220 27 85 61 202 75 259 14 58 30 112 35 120 7 14 27 15 157 9 216 -11 358
-13 631 -10 133 1 247 0 252 -3 12 -7 50 12 50 25 0 31 -47 34 -500 36 -250 2
-490 6 -534 11 -51 6 -82 5 -90 -2z"/>
<path d="M2185 9914 c-51 -26 -95 -64 -122 -105 -22 -33 -25 -47 -21 -93 5
-56 14 -73 197 -344 152 -225 166 -258 137 -318 -20 -43 -20 -64 -1 -64 18 0
42 36 55 80 16 55 -17 121 -183 370 -93 138 -160 249 -163 269 -9 45 17 93 75
137 65 50 110 48 167 -10 68 -67 61 -101 -38 -180 -47 -37 -58 -59 -38 -71 5
-3 37 15 70 39 79 59 116 66 177 35 66 -34 86 -66 91 -143 5 -79 -10 -127 -55
-177 -27 -30 -43 -39 -67 -39 -38 0 -47 -6 -39 -26 8 -22 75 -17 114 9 20 13
46 47 63 81 25 48 30 70 30 125 -1 37 -6 83 -13 102 -21 66 -110 129 -180 129
-28 0 -29 2 -25 33 7 41 -36 108 -96 148 -48 33 -90 37 -135 13z"/>
<path d="M4286 9878 c-17 -83 -14 -449 4 -478 4 -7 40 -12 88 -13 67 -2 85 1
109 19 71 53 99 183 50 239 -29 34 -92 42 -160 21 l-48 -14 1 111 c1 62 1 118
1 125 -1 22 -40 13 -45 -10z m216 -271 c14 -20 2 -97 -19 -126 -30 -39 -67
-54 -111 -44 l-37 9 -3 75 -3 76 53 16 c56 17 107 15 120 -6z"/>
<path d="M345 9400 c-3 -5 -1 -79 4 -162 6 -84 18 -328 26 -543 17 -451 21
-524 41 -698 8 -70 12 -131 10 -136 -3 -4 -1 -41 3 -82 5 -41 5 -77 2 -82 -4
-4 -68 -12 -142 -17 -264 -20 -269 -20 -269 -43 0 -22 4 -22 321 -1 l96 7 9
-84 c7 -64 13 -84 24 -84 12 0 16 18 18 86 l3 86 67 7 c37 3 103 6 147 6 44 1
116 5 160 10 103 12 389 25 1110 50 672 24 814 25 947 7 100 -14 125 -10 115
16 -3 9 -26 17 -60 21 l-54 7 -28 67 c-15 37 -41 98 -57 136 -15 38 -42 84
-59 103 -17 19 -54 72 -83 117 -112 171 -406 413 -514 424 -61 5 -97 -12 -254
-125 -148 -106 -205 -135 -273 -141 -78 -6 -120 21 -204 133 -203 268 -276
276 -503 57 -110 -106 -275 -312 -403 -500 -38 -56 -70 -100 -73 -98 -13 14
-33 288 -47 649 -16 435 -33 757 -41 795 -4 23 -28 30 -39 12z m910 -768 l30
-19 -3 -436 -2 -437 -90 0 -90 0 0 439 0 439 33 16 c42 21 85 20 122 -2z
m-195 -477 c0 -324 -3 -416 -12 -419 -7 -3 -43 -7 -80 -10 l-68 -7 0 360 0
359 70 66 c39 36 75 66 80 66 6 0 10 -150 10 -415z m1080 15 l0 -400 -70 0
-70 0 0 360 0 360 62 40 c33 22 65 40 70 40 4 0 8 -180 8 -400z m126 364 l54
-36 -2 -356 -3 -357 -50 -7 c-27 -4 -56 -6 -62 -3 -17 6 -19 795 -2 795 6 0
35 -16 65 -36z m-863 -62 l57 -79 0 -320 0 -320 -60 -7 c-33 -4 -65 -4 -70 -1
-11 7 -14 797 -4 808 10 10 16 4 77 -81z m1058 -89 l79 -76 0 -258 0 -257 -22
-6 c-13 -3 -53 -6 -90 -6 l-68 0 0 340 c0 243 3 340 11 340 6 0 47 -35 90 -77z
m-511 -279 l0 -345 -47 3 -48 3 -3 307 -2 307 46 35 c26 20 48 36 50 36 2 0 4
-155 4 -346z m-1100 -64 l0 -330 -60 0 -60 0 0 255 0 256 58 74 c31 41 58 75
60 75 1 0 2 -148 2 -330z m960 15 l0 -295 -60 0 -60 0 0 273 0 272 53 21 c28
12 55 22 60 23 4 0 7 -132 7 -294z m-276 276 c4 -5 29 -15 56 -22 l50 -13 0
-273 0 -274 -67 3 -68 3 -3 293 c-2 250 0 292 12 292 8 0 17 -4 20 -9z m1122
-156 l43 -70 0 -157 1 -158 -55 0 -55 0 0 231 c0 167 3 230 11 227 6 -2 31
-35 55 -73z m-1976 -255 l0 -220 -100 0 -100 0 0 80 0 81 81 122 c78 116 108
157 116 157 1 0 3 -99 3 -220z m2120 25 c13 -33 34 -82 47 -108 14 -27 22 -51
20 -54 -3 -2 -31 -1 -63 4 l-59 8 -3 109 c-4 163 7 171 58 41z"/>
<path d="M11420 9262 c-18 -19 -30 -41 -30 -57 0 -28 16 -66 34 -77 16 -11 74
-10 96 2 16 8 19 4 24 -34 4 -23 2 -55 -3 -69 -9 -24 -16 -27 -56 -27 -51 0
-63 -24 -20 -40 66 -25 125 25 125 106 0 42 -35 193 -48 206 -4 4 -26 10 -49
14 -38 6 -45 3 -73 -24z m90 -51 c0 -51 -61 -72 -68 -23 -6 37 5 52 38 52 26
0 30 -3 30 -29z"/>
<path d="M11705 9268 c-3 -7 -4 -44 -2 -83 2 -70 2 -70 -25 -73 -33 -4 -33 -1
-9 77 15 50 16 62 6 71 -20 16 -41 -21 -60 -104 -22 -93 -18 -100 49 -92 l53
6 7 -40 c5 -31 11 -40 26 -40 17 0 20 7 20 50 0 28 5 50 10 50 15 0 12 21 -5
34 -9 7 -20 38 -25 73 -4 34 -11 67 -15 73 -9 14 -25 13 -30 -2z"/>
<path d="M11238 9228 c-39 -33 -63 -98 -35 -98 6 0 26 17 43 37 27 33 34 36
48 24 23 -20 20 -42 -11 -66 -32 -27 -23 -50 17 -42 53 11 67 -41 25 -92 -14
-16 -38 -31 -53 -33 -15 -2 -28 -10 -30 -19 -9 -46 90 -22 125 30 29 42 31
113 6 139 -10 9 -18 32 -19 50 -2 62 -73 104 -116 70z"/>
<path d="M11649 8881 c-29 -29 -38 -64 -20 -76 6 -3 16 2 23 10 40 49 50 57
58 45 10 -16 2 -46 -16 -61 -8 -6 -14 -20 -14 -31 0 -16 6 -18 38 -16 37 3 37
3 40 -39 4 -54 -11 -81 -54 -99 -43 -18 -46 -44 -4 -44 38 0 95 55 104 101 9
44 -2 94 -25 115 -11 10 -19 30 -19 48 0 74 -59 99 -111 47z"/>
<path d="M11471 8856 c-7 -8 -11 -36 -9 -63 3 -40 6 -48 24 -51 59 -8 76 -93
30 -141 -27 -28 -28 -51 -2 -51 7 0 25 14 42 31 25 26 29 38 28 83 0 62 -22
103 -60 112 -32 8 -30 47 4 52 14 2 22 10 22 23 0 15 -7 19 -34 19 -18 0 -39
-6 -45 -14z"/>
<path d="M11325 8840 c-12 -19 26 -231 42 -237 8 -3 18 -1 22 6 8 12 -21 210
-33 229 -9 15 -23 15 -31 2z"/>
<path d="M11090 8820 c0 -19 5 -21 48 -18 34 2 47 7 47 18 0 11 -13 16 -47 18
-43 3 -48 1 -48 -18z"/>
<path d="M11775 8539 c-97 -15 -405 -57 -467 -64 -50 -6 -58 -9 -58 -27 0 -20
4 -20 83 -14 45 4 107 11 137 16 43 8 426 60 438 60 1 0 2 9 2 20 0 23 -29 25
-135 9z"/>
<path d="M3863 8491 c-24 -12 -55 -37 -72 -62 -50 -68 -101 -165 -101 -192 0
-42 52 -72 86 -49 7 4 35 46 63 94 28 48 60 92 71 98 26 14 116 12 175 -4 141
-38 269 -119 352 -221 103 -127 230 -216 397 -279 109 -41 172 -54 301 -60
103 -6 125 -4 155 11 27 14 36 25 38 50 3 27 -2 34 -26 47 -18 9 -43 13 -68 9
-21 -2 -86 0 -144 5 -125 12 -266 60 -375 128 -86 53 -126 89 -200 179 -70 85
-132 133 -241 185 -166 79 -321 101 -411 61z"/>
<path d="M11767 8446 c-9 -22 11 -238 23 -250 5 -5 16 -6 25 -3 11 5 14 14 9
33 -4 14 -9 72 -13 127 -5 83 -9 102 -22 105 -9 2 -19 -4 -22 -12z"/>
<path d="M11635 8373 c4 -32 8 -62 8 -68 1 -5 -13 -11 -31 -13 l-34 -3 7 65
c7 63 6 66 -14 66 -11 0 -21 -3 -21 -7 0 -5 -5 -39 -10 -77 -13 -88 -5 -100
60 -91 44 6 48 5 54 -17 3 -13 6 -37 6 -54 0 -35 27 -55 37 -28 7 19 -4 163
-19 232 -9 41 -15 52 -31 52 -18 0 -19 -5 -12 -57z"/>
<path d="M11420 8401 c-29 -8 -72 -67 -68 -95 5 -34 26 -29 48 13 21 41 46 53
56 27 3 -8 -14 -51 -38 -95 -48 -89 -46 -99 18 -108 25 -3 46 1 58 10 25 18
13 37 -25 37 -16 0 -29 2 -29 5 0 3 14 29 30 58 34 60 38 107 13 129 -27 23
-36 25 -63 19z"/>
<path d="M4212 8124 c-11 -7 -47 -64 -80 -126 -150 -282 -305 -522 -386 -595
-64 -58 -214 -138 -243 -129 -24 8 -63 75 -63 108 0 43 -52 72 -87 50 -20 -12
-34 -64 -27 -96 11 -53 55 -124 95 -151 75 -52 140 -42 288 45 151 88 213 165
428 535 110 189 163 290 163 312 0 39 -56 70 -88 47z"/>
<path d="M4558 7848 c-22 -17 -145 -208 -250 -388 -141 -240 -196 -382 -205
-520 -6 -97 8 -147 51 -175 56 -37 93 1 73 75 -22 83 7 215 83 375 36 75 204
359 298 504 47 72 51 92 22 121 -23 23 -49 26 -72 8z"/>
<path d="M8593 7818 c-6 -7 -14 -40 -18 -72 -9 -81 -14 -91 -79 -170 -52 -64
-68 -96 -47 -96 5 0 39 36 77 80 46 55 74 80 89 80 28 0 127 29 140 41 23 22
-19 25 -81 6 -36 -10 -68 -17 -71 -14 -3 3 0 36 6 73 12 67 5 98 -16 72z"/>
<path d="M8760 7546 c0 -14 107 -116 122 -116 21 0 3 30 -45 78 -53 52 -77 64
-77 38z"/>
<path d="M8700 7437 c0 -16 72 -87 88 -87 23 0 12 26 -26 63 -39 38 -62 47
-62 24z"/>
<path d="M6689 7429 c-177 -14 -318 -63 -504 -173 -44 -26 -81 -44 -83 -39
-28 70 -101 199 -114 201 -35 7 -29 -35 17 -134 25 -54 44 -104 43 -110 -2 -7
-66 -58 -143 -114 -168 -122 -197 -150 -269 -249 -159 -221 -231 -439 -242
-731 -5 -136 -4 -150 21 -235 51 -174 151 -354 276 -497 33 -36 59 -70 59 -75
0 -4 -37 -25 -81 -45 -62 -29 -80 -41 -77 -55 5 -30 36 -27 119 11 43 20 83
36 88 36 5 0 42 -25 82 -55 81 -61 240 -142 339 -174 103 -32 195 -44 294 -38
126 8 232 38 364 102 63 30 115 55 117 55 1 0 17 -34 35 -75 35 -79 48 -91 75
-71 16 12 15 19 -20 95 l-37 82 67 61 c73 67 123 135 181 248 36 71 39 80 39
165 0 82 -3 98 -37 180 -21 49 -35 92 -30 96 13 14 996 459 1005 456 5 -1 51
-90 101 -197 75 -158 96 -196 114 -198 12 -2 24 3 27 10 3 8 -35 100 -85 205
-49 104 -90 197 -90 204 0 9 53 39 133 74 103 47 133 65 135 81 2 12 -3 24
-11 27 -8 3 -73 -21 -146 -54 -72 -32 -135 -59 -139 -59 -5 0 -27 38 -50 84
-102 205 -217 344 -477 574 -232 204 -396 295 -599 331 -67 12 -352 12 -497 0z
m517 -64 c164 -34 311 -115 494 -271 179 -153 313 -288 378 -380 65 -90 151
-249 141 -259 -4 -3 -28 3 -55 13 -27 10 -86 29 -131 42 -67 19 -85 21 -97 11
-29 -24 0 -43 124 -81 67 -21 126 -42 131 -47 10 -10 -942 -448 -959 -442 -6
2 -25 26 -44 54 -61 91 -156 144 -300 166 -81 13 -157 7 -236 -18 -29 -9 -55
-13 -58 -11 -8 9 -443 963 -440 966 2 1 61 -20 131 -48 133 -53 170 -59 170
-26 0 23 -2 24 -150 82 -66 25 -124 50 -128 54 -9 8 119 86 206 125 142 62
263 80 558 84 139 1 206 -2 265 -14z m-1178 -307 c-31 -83 -49 -154 -45 -175
2 -14 -3 -73 -13 -132 -20 -121 -13 -158 27 -133 16 10 47 207 36 227 -11 19
55 231 67 218 7 -6 358 -766 421 -910 l18 -42 -52 -29 c-98 -55 -165 -153
-174 -251 -6 -62 17 -126 75 -211 l31 -45 -42 -21 c-103 -52 -558 -256 -562
-252 -3 3 2 56 10 118 8 63 15 131 15 152 0 34 -3 38 -25 38 -28 0 -29 -1 -45
-140 -6 -52 -13 -96 -16 -99 -2 -2 -10 2 -17 11 -149 188 -216 309 -269 488
-50 168 0 517 103 723 44 88 132 218 182 269 43 44 255 207 271 208 4 0 6 -6
4 -12z m945 -966 c79 -28 135 -68 167 -119 17 -26 30 -50 30 -53 0 -8 -389
-184 -394 -179 -15 16 -153 335 -148 341 4 4 32 14 62 23 70 19 208 13 283
-13z m-329 -209 c42 -91 73 -170 69 -174 -14 -13 -210 -99 -227 -99 -19 0 -71
68 -97 128 -33 75 -21 141 36 217 27 35 109 95 130 95 7 0 47 -75 89 -167z
m583 -74 c35 -69 53 -138 53 -198 0 -64 -33 -142 -106 -252 -44 -67 -126 -149
-148 -149 -11 1 -217 444 -216 466 0 11 369 184 385 180 6 -1 20 -22 32 -47z
m-427 -269 c26 -58 70 -154 98 -214 28 -61 49 -113 47 -116 -2 -4 -53 -12
-112 -19 -149 -17 -153 -18 -153 -42 0 -30 24 -34 124 -21 50 6 92 9 95 7 8
-8 -161 -83 -229 -101 -90 -25 -301 -25 -388 -1 -113 31 -331 138 -340 167 -3
7 0 10 6 6 5 -3 63 -15 128 -26 105 -18 120 -19 133 -5 24 24 -3 42 -84 55
-114 18 -208 41 -198 50 4 4 128 63 276 130 l268 121 62 -25 c74 -29 246 -58
265 -43 15 12 16 34 0 43 -7 4 -53 13 -103 20 -50 7 -104 18 -120 25 l-30 12
90 43 c50 24 96 42 104 41 8 -1 35 -49 61 -107z"/>
<path d="M6602 6991 c-8 -5 -12 -17 -10 -27 2 -14 34 -30 121 -61 122 -44 150
-46 145 -9 -2 17 -25 29 -118 63 -131 48 -121 45 -138 34z"/>
<path d="M6944 6865 c-3 -8 -4 -19 -2 -25 2 -6 70 -36 152 -67 133 -50 149
-54 163 -40 28 28 14 37 -177 108 -117 43 -128 45 -136 24z"/>
<path d="M7321 6747 c-30 -30 -10 -45 137 -97 84 -30 95 -32 109 -18 19 19 10
36 -25 50 -149 57 -211 75 -221 65z"/>
<path d="M7656 6623 c-9 -23 5 -34 101 -76 103 -46 127 -50 131 -20 3 19 -10
28 -94 68 -106 49 -128 54 -138 28z"/>
<path d="M5920 6498 c-12 -29 -50 -242 -50 -280 0 -31 24 -48 42 -30 11 11 57
256 58 305 0 21 -5 27 -20 27 -12 0 -25 -10 -30 -22z"/>
<path d="M5871 6081 c-9 -6 -23 -60 -37 -148 -28 -165 -29 -209 -9 -217 19 -7
45 20 45 47 0 12 10 84 22 160 18 119 19 140 7 152 -9 9 -19 11 -28 6z"/>
<path d="M6330 5195 c-31 -38 16 -54 170 -58 63 -2 65 -1 65 23 0 23 -4 25
-65 32 -36 4 -86 9 -111 13 -34 4 -49 1 -59 -10z"/>
<path d="M8907 7309 c-53 -28 -83 -94 -67 -144 12 -37 35 -55 69 -55 30 0 26
17 -9 35 -60 31 -28 123 50 146 33 10 43 9 66 -5 33 -22 58 -6 32 20 -26 26
-97 28 -141 3z"/>
<path d="M9030 7141 c-46 -46 -52 -108 -13 -146 26 -26 92 -14 120 22 30 36
39 86 23 123 -11 27 -17 30 -57 30 -36 0 -50 -6 -73 -29z m100 -16 c17 -20 -4
-81 -35 -101 -37 -24 -65 -10 -65 34 0 62 67 107 100 67z"/>
<path d="M9227 7052 c-22 -24 -21 -43 5 -96 21 -44 21 -46 3 -66 -35 -38 -97
-18 -107 35 -5 28 -22 21 -26 -9 -8 -64 94 -101 152 -55 32 25 34 64 6 116
-17 32 -18 39 -6 52 13 12 20 11 52 -8 57 -34 70 -6 14 32 -32 22 -73 22 -93
-1z"/>
<path d="M9476 6852 c-3 -5 -8 -27 -12 -49 -6 -39 -6 -40 -81 -62 -48 -14 -73
-26 -70 -34 5 -15 27 -14 89 4 26 7 49 11 52 8 2 -2 0 -26 -5 -53 -6 -32 -6
-53 1 -60 15 -15 23 -1 35 67 l11 62 44 11 c28 7 46 17 48 27 4 19 1 20 -50 8
l-38 -9 0 38 c0 37 -13 60 -24 42z"/>
<path d="M1 6564 c0 -26 77 -94 714 -624 393 -327 714 -599 714 -605 1 -14
-909 -1100 -919 -1098 -5 2 -119 95 -254 208 -135 113 -248 205 -251 205 -3 0
-5 -11 -5 -24 0 -19 49 -65 238 -223 240 -203 275 -228 292 -218 17 10 955
1136 958 1150 2 7 -311 276 -725 622 -400 334 -736 614 -746 622 -15 12 -17
11 -16 -15z"/>
<path d="M11545 6566 c-111 -41 -175 -94 -175 -144 0 -41 31 -85 142 -200 60
-62 116 -128 125 -147 24 -51 3 -100 -62 -142 -28 -18 -53 -29 -58 -24 -5 5
-73 143 -152 307 -89 187 -149 300 -159 302 -9 2 -16 -2 -16 -8 0 -6 65 -147
145 -314 80 -168 145 -307 145 -310 0 -3 -16 -8 -35 -12 -47 -8 -128 12 -154
40 -32 34 -57 118 -75 246 -18 131 -32 158 -94 179 -39 14 -42 14 -114 -21
-85 -42 -141 -93 -115 -104 10 -4 29 4 48 21 43 35 123 75 153 75 53 0 67 -27
86 -158 37 -259 96 -326 272 -310 l51 5 53 -113 c30 -63 58 -114 63 -114 24 0
18 27 -29 126 -27 59 -50 110 -50 114 0 4 22 21 50 38 60 37 90 83 90 137 0
55 -24 90 -144 214 -57 58 -108 116 -115 128 -16 32 -14 68 7 86 19 17 149 81
183 90 20 5 23 28 3 33 -5 2 -36 -7 -69 -20z"/>
<path d="M9732 6546 c3 -13 131 -126 142 -126 21 0 -3 36 -56 84 -59 54 -93
71 -86 42z"/>
<path d="M3145 6484 c-310 -58 -569 -194 -785 -414 -185 -188 -323 -448 -382
-722 -17 -83 -22 -137 -22 -273 -1 -274 44 -454 177 -700 195 -361 550 -622
970 -712 105 -23 435 -25 542 -4 102 20 289 83 375 126 404 203 676 558 772
1009 16 79 21 137 22 266 0 190 -16 298 -69 456 -165 493 -553 841 -1074 960
-98 23 -423 28 -526 8z m577 -108 c406 -105 742 -394 904 -777 77 -181 106
-330 106 -539 0 -358 -135 -682 -392 -941 -360 -362 -887 -491 -1370 -333
-146 47 -140 41 -106 113 24 50 27 63 16 76 -26 32 -56 18 -89 -40 -17 -30
-35 -55 -39 -55 -15 0 -155 90 -218 141 -185 147 -361 399 -432 619 -69 213
-86 483 -43 688 116 555 538 968 1096 1073 80 15 133 18 265 15 149 -4 178 -8
302 -40z"/>
<path d="M3323 5144 c-60 -30 -80 -89 -53 -154 37 -89 200 -75 224 20 23 96
-83 179 -171 134z"/>
<path d="M3240 4858 c-34 -72 -36 -81 -15 -98 29 -24 60 -4 90 60 33 68 28 93
-19 98 -23 3 -29 -3 -56 -60z"/>
<path d="M3130 4629 c-46 -91 -46 -119 1 -119 27 0 33 7 71 84 35 71 40 87 29
100 -8 9 -24 16 -37 16 -20 0 -31 -14 -64 -81z"/>
<path d="M3536 4654 c-31 -31 -19 -49 69 -99 28 -16 76 -54 108 -86 61 -61 69
-87 41 -127 -37 -53 13 -97 61 -52 36 33 49 92 30 136 -8 20 -15 38 -15 40 0
1 14 4 31 6 39 4 59 30 43 55 -6 10 -45 28 -88 40 -42 12 -116 40 -165 62 -48
23 -90 41 -94 41 -3 0 -13 -7 -21 -16z"/>
<path d="M3033 4452 c-17 -10 -83 -156 -83 -181 0 -24 34 -45 55 -33 14 7 74
122 89 169 11 35 -30 65 -61 45z"/>
<path d="M2911 4167 c-20 -25 -42 -88 -36 -107 14 -44 58 -34 85 21 25 48 25
75 1 89 -26 13 -36 13 -50 -3z"/>
<path d="M0 6380 c0 -12 31 -51 78 -98 78 -77 141 -181 157 -258 l6 -32 -58
-7 c-32 -4 -86 -16 -120 -27 -54 -18 -63 -24 -63 -44 0 -13 1 -24 3 -24 1 0
28 9 58 20 58 20 179 43 187 35 7 -7 7 -143 0 -150 -4 -5 -184 43 -234 62 -10
3 -14 -2 -14 -19 0 -23 9 -27 113 -57 61 -18 116 -36 120 -40 4 -4 3 -20 -2
-34 l-10 -26 -48 14 c-26 8 -75 23 -107 35 -33 11 -61 20 -63 20 -1 0 -3 -11
-3 -23 0 -21 10 -27 96 -53 53 -16 98 -35 101 -42 12 -29 -14 -30 -97 -7 -102
30 -102 30 -98 3 2 -17 16 -25 73 -41 39 -10 74 -23 79 -27 4 -5 0 -20 -10
-34 -14 -18 -25 -23 -39 -19 -112 35 -105 34 -105 9 0 -18 8 -25 40 -35 22 -6
40 -16 40 -21 0 -12 -50 -50 -66 -50 -9 0 -14 -12 -14 -35 0 -34 1 -35 23 -24
48 25 172 164 204 229 43 85 73 206 73 292 l0 68 33 0 c150 0 369 -153 445
-310 159 -328 1 -698 -348 -816 -41 -14 -84 -19 -170 -19 -99 0 -125 4 -187
27 l-73 26 0 -22 c0 -62 265 -101 415 -62 219 58 394 233 450 451 20 77 20
233 0 308 -62 235 -246 407 -490 456 l-86 17 -28 80 c-34 99 -85 177 -162 248
-77 72 -99 84 -99 56z"/>
<path d="M10060 6303 c-42 -15 -51 -68 -23 -129 17 -36 17 -36 -6 -55 -17 -14
-28 -16 -41 -9 -20 11 -40 60 -40 97 0 15 -5 23 -12 21 -30 -10 -19 -98 17
-134 30 -29 64 -31 99 -3 31 24 34 62 10 113 -9 19 -14 41 -11 50 9 23 47 20
74 -6 18 -17 26 -19 35 -10 26 26 -61 81 -102 65z"/>
<path d="M10290 6205 c0 -8 7 -15 15 -15 8 0 15 7 15 15 0 8 -7 15 -15 15 -8
0 -15 -7 -15 -15z"/>
<path d="M10154 6094 c-58 -60 -78 -94 -55 -94 9 0 144 135 149 150 2 6 -4 10
-13 10 -10 0 -46 -30 -81 -66z"/>
<path d="M10277 6033 c-19 -26 -49 -61 -66 -77 -17 -17 -31 -36 -31 -43 0 -16
26 -17 36 -2 12 21 98 69 122 69 41 0 18 -46 -61 -123 -29 -29 -37 -41 -28
-50 8 -8 24 2 62 38 57 56 79 92 79 129 0 29 -31 50 -60 41 -23 -7 -25 -2 -8
25 9 14 9 23 2 30 -8 8 -21 -2 -47 -37z"/>
<path d="M10482 5928 c-7 -7 -12 -28 -12 -47 0 -67 -8 -78 -71 -101 -33 -13
-59 -29 -59 -36 0 -18 6 -18 64 2 26 9 50 13 54 10 3 -4 1 -37 -5 -73 -12 -66
-10 -83 7 -83 12 0 21 32 28 108 l7 67 60 21 c32 12 61 27 63 34 5 13 -10 12
-92 -6 l-29 -7 6 56 c6 58 -1 75 -21 55z"/>
<path d="M316 5291 c-115 -132 -125 -155 -80 -190 47 -37 156 -23 215 26 28
24 31 31 26 70 -4 34 -1 44 13 48 24 8 47 35 55 66 9 37 -37 88 -86 95 -36 6
-37 5 -143 -115z m174 54 c29 -35 -18 -75 -74 -61 -31 8 -32 15 -5 50 23 29
60 34 79 11z m-105 -99 c36 -15 60 -49 51 -71 -13 -36 -137 -67 -169 -43 -17
13 -15 17 30 70 26 31 49 57 51 57 1 1 18 -5 37 -13z"/>
<path d="M11831 5203 c-43 -87 -161 -327 -261 -533 -100 -206 -190 -383 -199
-393 -15 -18 -14 -21 14 -44 17 -13 131 -92 255 -174 260 -172 260 -169 -5
-120 -82 15 -156 26 -163 23 -36 -13 27 -32 203 -61 301 -50 335 -41 193 48
-121 76 -389 252 -426 280 -18 14 -32 29 -32 34 0 5 117 249 260 541 143 293
260 538 260 544 0 37 -28 -5 -99 -145z"/>
<path d="M7867 5323 c-14 -14 -5 -23 42 -48 73 -37 131 -95 131 -132 0 -41
-12 -53 -117 -117 -97 -60 -173 -128 -199 -179 -23 -43 -12 -116 26 -184 l31
-55 -35 -43 c-20 -24 -56 -67 -81 -96 -42 -49 -48 -69 -22 -69 7 0 46 41 86
90 41 50 78 90 82 90 4 0 30 -14 58 -31 137 -85 214 -31 296 211 33 97 64 151
97 170 25 14 31 13 64 -5 21 -11 64 -46 96 -77 59 -59 78 -69 78 -44 0 22 -45
70 -111 121 -101 75 -162 61 -217 -50 -11 -22 -27 -67 -37 -99 -20 -70 -69
-172 -97 -203 -41 -45 -100 -37 -173 21 l-29 23 214 257 c118 141 216 263 218
270 11 49 -41 -3 -234 -234 -120 -143 -223 -259 -228 -257 -21 6 -56 91 -56
134 0 33 7 50 33 80 47 55 62 67 171 135 78 48 102 69 113 97 29 69 -7 126
-121 195 -63 38 -69 40 -79 29z"/>
<path d="M10220 5189 c-13 -5 -56 -40 -95 -77 -144 -137 -213 -189 -274 -206
-234 -66 -454 -27 -691 121 -123 77 -126 78 -192 78 -56 0 -70 -4 -92 -24 -14
-13 -28 -40 -32 -60 -3 -20 -18 -92 -34 -161 -25 -112 -29 -151 -35 -375 -4
-161 -3 -273 4 -315 21 -128 133 -304 223 -348 67 -33 112 -19 198 62 36 33
84 73 105 87 220 146 253 159 421 166 84 4 132 2 160 -7 21 -7 146 -69 278
-136 131 -68 247 -124 258 -124 23 0 149 124 173 170 25 48 40 351 26 534 -11
161 -30 260 -73 396 -52 162 -112 220 -237 226 -36 2 -77 -1 -91 -7z m176 -39
c23 -10 53 -33 68 -52 49 -66 108 -278 127 -458 15 -145 5 -527 -15 -574 -18
-42 -92 -130 -123 -147 -24 -13 -27 -11 -68 36 -46 53 -72 57 -35 5 12 -17 20
-33 18 -35 -2 -3 -99 45 -215 104 -115 60 -230 115 -254 122 -24 7 -47 15 -52
19 -4 4 5 33 19 65 22 47 29 84 38 187 13 165 2 217 -90 435 -3 6 8 14 28 18
18 4 49 16 68 25 38 20 174 132 255 210 74 71 134 82 231 40z m-1388 -69 c52
-32 197 -447 211 -604 10 -110 -3 -354 -24 -452 -18 -82 -66 -171 -100 -187
-13 -6 -39 -8 -59 -4 -49 9 -136 108 -187 212 -39 77 -41 86 -51 223 -8 105
-8 149 1 167 6 15 11 83 11 167 0 115 5 161 24 242 13 55 27 120 31 145 12 77
30 93 110 98 11 1 26 -2 33 -7z m187 -105 c132 -80 283 -125 418 -126 37 0 67
-3 67 -7 0 -3 -7 -14 -15 -23 -19 -21 -31 -80 -17 -80 6 0 15 15 22 34 12 37
64 86 91 86 25 0 33 -14 78 -139 37 -100 42 -123 42 -200 -1 -129 -15 -231
-41 -281 -38 -76 -38 -76 -92 -23 -52 51 -69 39 -23 -16 l26 -30 -46 -5 c-25
-3 -66 -9 -92 -12 -26 -3 -65 -13 -88 -22 -49 -19 -215 -122 -273 -169 -24
-19 -46 -33 -49 -30 -3 3 0 21 6 39 21 58 41 248 41 384 0 148 -15 239 -58
364 -17 47 -37 111 -46 142 -9 31 -32 86 -51 122 -41 78 -42 84 -12 62 12 -9
63 -40 112 -70z"/>
<path d="M10295 5110 c-26 -41 -31 -60 -16 -60 10 0 61 75 61 90 0 22 -21 8
-45 -30z"/>
<path d="M10236 5003 c-12 -45 -17 -101 -8 -107 13 -8 20 11 28 74 4 33 3 50
-4 50 -6 0 -13 -8 -16 -17z"/>
<path d="M10211 4812 c-6 -11 -13 -38 -17 -61 -9 -55 12 -55 26 2 6 23 13 47
15 54 7 21 -13 25 -24 5z"/>
<path d="M10195 4607 c-8 -31 8 -123 20 -119 6 1 10 9 9 17 0 8 -1 40 -2 70
-2 56 -17 74 -27 32z"/>
<path d="M10216 4433 c-8 -8 -8 -101 0 -130 13 -46 24 -21 24 51 0 69 -8 95
-24 79z"/>
<path d="M10236 4212 c-14 -23 47 -162 71 -162 17 0 17 0 -11 51 -13 24 -27
59 -31 76 -7 34 -20 49 -29 35z"/>
<path d="M9637 4694 c-10 -10 -9 -114 2 -114 11 0 23 102 13 112 -5 5 -11 5
-15 2z"/>
<path d="M9632 4488 c4 -59 28 -63 28 -4 0 35 -4 46 -16 46 -12 0 -14 -9 -12
-42z"/>
<path d="M9650 4381 c0 -22 20 -83 31 -95 19 -21 20 5 3 58 -17 55 -34 74 -34
37z"/>
<path d="M6358 4420 c-33 -36 -42 -67 -35 -126 13 -117 139 -168 162 -65 5 25
10 28 48 27 53 -1 59 25 7 31 -43 4 -50 12 -92 93 -18 36 -40 66 -48 67 -8 2
-27 -11 -42 -27z m61 -81 c40 -65 41 -124 2 -124 -31 0 -61 40 -68 92 -5 38 9
83 26 83 4 0 22 -23 40 -51z"/>
<path d="M11991 4384 c0 -11 3 -14 6 -6 3 7 2 16 -1 19 -3 4 -6 -2 -5 -13z"/>
<path d="M6504 4102 l-630 -287 -50 -63 c-27 -36 -89 -122 -139 -193 -49 -72
-123 -177 -164 -235 l-73 -106 282 -626 c156 -345 288 -633 293 -640 5 -6 17
-12 27 -12 10 0 287 122 616 271 330 149 604 273 611 276 7 3 58 69 115 146
100 140 135 189 271 383 l68 96 -59 132 c-269 590 -497 1100 -506 1129 -3 9
-11 17 -18 16 -7 -1 -297 -130 -644 -287z m569 186 c-15 -24 -55 -79 -88 -124
-33 -44 -95 -128 -137 -185 -141 -191 -115 -172 -463 -329 -170 -77 -317 -142
-326 -145 -11 -4 -21 6 -34 35 -10 22 -24 40 -32 40 -17 0 -16 -9 3 -55 8 -21
12 -41 7 -45 -15 -13 -464 -213 -468 -208 -3 3 18 38 47 79 28 41 86 124 127
184 85 124 162 225 172 225 4 0 21 -29 38 -65 16 -36 34 -65 40 -65 23 0 20
23 -14 89 -32 65 -34 72 -18 82 22 13 1155 527 1166 528 4 1 -5 -18 -20 -41z
m197 -237 c53 -119 109 -241 122 -271 149 -328 288 -639 288 -647 0 -5 -27
-22 -60 -38 -33 -16 -60 -32 -60 -36 0 -17 21 -19 51 -4 17 9 33 14 35 12 7
-6 -340 -507 -351 -507 -1 0 -31 63 -65 141 -52 115 -62 144 -52 159 12 20 6
30 -18 30 -12 0 -31 33 -65 108 -26 59 -60 134 -75 167 -26 56 -88 191 -224
494 -31 68 -53 128 -49 135 4 6 28 36 53 66 26 30 71 89 100 130 75 105 195
269 221 304 l22 28 15 -27 c8 -15 58 -125 112 -244z m-521 -369 c19 -42 52
-113 72 -157 117 -255 289 -642 289 -651 0 -7 -18 -19 -40 -28 -24 -9 -40 -22
-40 -32 0 -17 9 -16 67 7 18 7 34 11 36 9 14 -16 137 -303 132 -308 -11 -11
-1169 -532 -1173 -528 -2 3 10 25 27 50 34 49 38 66 17 66 -7 0 -31 -25 -51
-55 -21 -30 -41 -55 -44 -55 -6 0 -537 1172 -543 1198 -2 8 96 57 261 132 145
66 265 120 267 120 1 0 14 -25 28 -55 23 -52 38 -66 50 -47 3 5 -6 32 -20 62
-13 29 -23 54 -22 56 5 4 642 293 648 294 3 0 21 -35 39 -78z"/>
<path d="M7443 3020 c-59 -27 -74 -42 -55 -54 15 -9 132 52 132 69 0 20 -4 19
-77 -15z"/>
<path d="M7278 2942 c-54 -25 -76 -52 -43 -52 28 0 127 50 123 62 -7 19 -20
18 -80 -10z"/>
<path d="M6110 3281 c0 -6 18 -50 40 -98 31 -66 43 -84 52 -75 15 15 -53 175
-76 180 -9 2 -16 -1 -16 -7z"/>
<path d="M6220 3043 c0 -29 59 -145 70 -138 16 10 12 25 -20 93 -28 60 -50 80
-50 45z"/>
<path d="M6306 2852 c-7 -12 51 -132 64 -132 16 0 12 25 -14 85 -24 52 -38 66
-50 47z"/>
<path d="M6930 2779 c-76 -36 -77 -36 -63 -50 13 -13 156 48 150 64 -6 20 -22
17 -87 -14z"/>
<path d="M6743 2690 c-60 -28 -74 -42 -54 -54 14 -9 141 54 141 70 0 20 -16
17 -87 -16z"/>
<path d="M6384 2687 c-3 -8 9 -43 26 -76 l31 -62 -36 -41 c-34 -40 -45 -68
-26 -68 16 0 91 84 91 102 0 22 -55 144 -69 152 -6 4 -14 1 -17 -7z"/>
<path d="M6543 2608 c-35 -16 -63 -36 -63 -44 0 -20 8 -18 89 17 39 18 71 38
71 45 0 21 -28 16 -97 -18z"/>
<path d="M6291 2357 c-35 -54 -39 -69 -22 -75 11 -4 81 96 81 115 0 28 -27 10
-59 -40z"/>
<path d="M6196 2211 c-38 -52 -44 -71 -23 -71 14 0 77 81 77 99 0 27 -22 16
-54 -28z"/>
<path d="M11700 4382 c-32 -11 -40 -55 -16 -88 12 -15 17 -17 27 -6 10 9 10
15 1 24 -18 18 -15 38 6 38 30 0 45 -17 51 -56 4 -22 11 -39 16 -39 17 0 56
88 45 99 -8 8 -14 6 -20 -4 -8 -12 -11 -12 -27 2 -24 22 -64 36 -83 30z"/>
<path d="M11882 4207 c-6 -6 -13 -24 -17 -40 -4 -15 -9 -27 -11 -27 -2 0 -26
9 -53 20 -34 13 -52 16 -57 9 -10 -17 4 -25 116 -62 58 -20 113 -39 123 -42
15 -6 17 0 17 58 0 57 -3 68 -22 81 -27 19 -82 21 -96 3z m88 -37 c22 -22 25
-37 11 -58 -7 -11 -15 -11 -45 2 -30 13 -36 20 -36 45 0 26 4 31 25 31 14 0
34 -9 45 -20z"/>
<path d="M7450 3955 c0 -6 84 -150 125 -215 12 -20 32 -54 43 -77 25 -47 53
-61 89 -42 76 41 65 202 -16 243 -41 22 -54 20 -91 -10 -17 -15 -33 -25 -35
-22 -3 2 -23 32 -45 66 -22 34 -46 62 -55 62 -8 0 -15 -2 -15 -5z m233 -125
c35 -27 54 -108 35 -147 -23 -48 -48 -41 -90 28 -21 33 -38 67 -38 75 0 16 44
64 58 64 5 0 21 -9 35 -20z"/>
<path d="M710 3939 c0 -6 12 -33 27 -59 l27 -49 -17 -48 c-20 -56 -21 -66 -6
-61 11 4 89 193 89 216 0 26 -18 10 -34 -28 -9 -22 -18 -40 -20 -40 -3 0 -15
18 -27 40 -22 39 -39 51 -39 29z"/>
<path d="M11743 3357 c-139 -284 -253 -521 -253 -527 0 -14 16 -13 27 3 6 6
117 231 247 498 176 360 237 493 234 515 -2 22 -58 -85 -255 -489z"/>
<path d="M11687 3775 c-17 -35 -17 -35 -46 -20 -37 19 -51 19 -51 1 0 -7 14
-19 31 -26 24 -10 29 -18 27 -38 -4 -31 17 -40 31 -13 10 19 13 19 46 5 43
-17 45 -17 45 1 0 8 -16 21 -35 30 -36 14 -36 14 -20 44 18 37 19 51 2 51 -7
0 -21 -16 -30 -35z"/>
<path d="M755 3546 c-29 -57 -45 -98 -40 -106 6 -9 23 16 52 73 24 48 47 87
52 87 4 0 14 -19 21 -42 17 -58 52 -126 57 -111 4 12 -37 135 -57 174 -19 35
-36 20 -85 -75z"/>
<path d="M790 3366 l0 -135 -32 -3 c-38 -3 -36 -23 2 -23 l25 -1 3 -1227 2
-1227 -100 0 c-82 0 -100 -3 -100 -15 0 -12 18 -15 100 -15 l100 0 0 -85 c0
-50 4 -85 10 -85 6 0 10 35 10 85 l0 85 955 0 955 0 0 -25 c0 -16 6 -25 15
-25 9 0 15 9 15 25 l0 25 135 0 c123 0 161 8 119 24 -9 3 -69 6 -135 6 l-119
0 0 35 c0 24 -5 35 -15 35 -10 0 -15 -11 -15 -35 l0 -35 -90 0 -90 0 -2 398
-3 397 -54 3 c-30 2 -65 1 -78 -3 l-23 -5 0 -395 0 -395 -100 0 -99 0 6 1118
c3 615 3 1130 -1 1145 -7 28 -7 28 -79 25 l-72 -3 -3 -1143 -2 -1142 -90 0
-90 0 0 773 c0 426 -2 776 -4 778 -2 2 -43 3 -90 1 l-86 -3 0 -774 c0 -703 -1
-774 -16 -777 -9 -2 -52 -2 -95 0 l-79 4 0 492 c0 271 -2 495 -4 497 -2 2 -36
3 -75 1 l-71 -4 0 -494 0 -494 -95 0 -95 0 0 270 c0 209 -3 270 -12 271 -7 1
-35 3 -63 5 -27 3 -60 2 -72 -1 l-23 -5 0 -270 0 -270 -80 0 -80 0 0 1225 0
1225 28 12 27 11 -25 6 c-25 7 -25 7 -28 139 -4 177 -22 175 -22 -2z m1370
-1486 l0 -1130 -50 0 -50 0 0 1130 0 1130 50 0 50 0 0 -1130z m-340 -365 l0
-765 -60 0 -60 0 0 765 0 765 60 0 60 0 0 -765z m-360 -285 l0 -480 -49 0 -50
0 -3 138 c-2 75 -2 291 0 480 l3 342 49 0 50 0 0 -480z m1060 -95 l0 -385 -60
0 -60 0 0 385 0 385 60 0 60 0 0 -385z m-1410 -125 l0 -260 -60 0 -60 0 0 253
c0 140 3 257 7 260 3 4 30 7 60 7 l53 0 0 -260z"/>
<path d="M11537 3482 c-10 -10 -17 -24 -17 -30 0 -21 -22 -24 -61 -7 -22 10
-42 15 -46 12 -13 -14 22 -38 100 -68 45 -17 88 -36 95 -42 21 -17 56 25 56
69 0 66 -86 111 -127 66z m77 -25 c17 -12 26 -61 13 -73 -7 -7 -87 27 -87 38
0 21 22 48 38 48 10 0 26 -6 36 -13z"/>
<path d="M3702 3288 c-17 -17 -15 -46 6 -56 9 -5 49 -12 88 -16 120 -10 174
-37 174 -86 0 -53 -32 -132 -175 -429 -80 -167 -145 -310 -143 -319 5 -26 35
-39 52 -22 8 8 78 146 154 305 l139 290 66 34 c53 27 77 34 129 34 69 0 120
-19 139 -54 6 -13 9 -52 7 -98 -3 -65 -13 -98 -67 -231 -34 -85 -114 -258
-177 -385 -145 -291 -172 -386 -142 -502 20 -83 123 -166 163 -133 24 20 17
38 -25 65 -51 32 -73 76 -73 145 0 88 26 160 153 415 128 259 225 493 241 582
21 115 -10 197 -91 243 -38 21 -57 25 -120 24 -41 -1 -94 -8 -117 -17 l-43
-16 0 57 c0 79 -23 114 -92 140 -30 11 -76 23 -103 26 -28 4 -68 9 -90 12 -25
3 -45 0 -53 -8z"/>
<path d="M582 3258 c-14 -14 -16 -38 -3 -38 6 0 13 5 16 10 11 17 25 11 35
-15 12 -33 3 -55 -24 -55 -31 0 -49 -15 -44 -36 3 -14 11 -18 33 -16 17 2 49
3 73 3 46 0 57 15 17 25 -21 5 -25 12 -25 43 0 68 -44 113 -78 79z"/>
<path d="M11423 3238 c-39 -48 -68 -144 -40 -132 18 7 69 126 59 136 -5 5 -13
3 -19 -4z"/>
<path d="M9572 2556 c-667 -288 -1217 -527 -1223 -533 -7 -7 -4 -21 10 -44 11
-19 144 -324 296 -679 152 -355 283 -651 291 -659 14 -15 204 65 1789 750 193
83 391 167 440 188 142 59 230 105 232 121 2 8 -129 321 -290 695 -239 554
-296 680 -312 682 -11 1 -566 -234 -1233 -521z m1506 -183 c155 -362 282 -661
282 -665 0 -5 -4 -8 -9 -8 -5 0 -112 -45 -237 -99 -487 -212 -2119 -911 -2132
-914 -9 -1 -103 206 -293 647 -153 357 -279 654 -279 661 0 9 2356 1033 2380
1035 3 0 132 -296 288 -657z"/>
<path d="M10130 2613 c-149 -25 -319 -132 -404 -256 -37 -54 -38 -54 -74 -46
-61 14 -219 10 -285 -7 -271 -70 -467 -323 -467 -604 0 -168 61 -312 185 -436
134 -134 280 -191 470 -181 193 10 363 101 471 252 44 62 45 63 77 54 50 -14
216 -11 282 7 216 56 386 221 451 439 28 94 24 248 -10 352 -67 207 -231 359
-444 414 -70 18 -185 23 -252 12z m262 -59 c153 -45 294 -165 361 -306 147
-310 7 -662 -316 -789 -76 -31 -90 -33 -204 -33 -72 -1 -126 3 -132 9 -7 7 -5
26 8 61 45 118 45 276 0 411 -22 66 -74 154 -129 217 -42 47 -160 131 -206
146 -19 6 -34 16 -34 22 0 21 82 117 133 156 95 71 165 102 275 122 61 11 177
3 244 -16z m-741 -288 c13 -6 12 -15 -8 -77 -50 -149 -38 -320 35 -469 49
-103 168 -223 270 -274 l73 -37 -18 -30 c-31 -52 -146 -155 -209 -187 -96 -49
-168 -66 -274 -66 -161 0 -287 52 -401 164 -182 180 -226 440 -113 670 71 143
231 270 387 306 61 13 224 14 258 0z m157 -62 c23 -14 42 -28 42 -32 0 -4 -43
-50 -96 -102 l-96 -95 5 80 c3 45 14 105 27 137 20 55 22 57 48 47 15 -6 46
-21 70 -35z m116 -86 c9 -15 -8 -36 -114 -143 -69 -69 -128 -125 -131 -125 -4
0 -9 14 -13 30 -5 29 3 39 107 146 61 63 118 113 126 112 8 -2 19 -11 25 -20z
m27 -125 c-23 -26 -83 -97 -134 -156 -82 -97 -93 -107 -104 -91 -7 10 -13 25
-13 34 0 9 59 78 131 154 118 122 134 136 147 122 13 -13 10 -20 -27 -63z m87
-28 c11 -24 4 -34 -120 -179 l-132 -153 -19 24 c-22 27 -29 14 77 143 73 90
166 190 177 190 3 0 11 -11 17 -25z m47 -128 c5 -29 0 -38 -56 -97 -33 -36
-82 -91 -107 -122 -25 -32 -50 -58 -57 -58 -7 0 -20 9 -30 20 -17 19 -16 22
56 107 104 125 170 193 180 187 4 -2 11 -19 14 -37z m0 -268 c-9 -35 -23 -76
-31 -91 l-14 -28 -65 32 c-36 18 -65 36 -65 42 0 12 60 85 130 160 l55 58 3
-55 c2 -31 -4 -84 -13 -118z"/>
<path d="M10340 2233 c-23 -8 -70 -55 -70 -69 0 -7 28 -80 61 -163 l62 -151
37 0 c44 0 73 27 95 89 32 91 13 160 -48 175 -31 8 -36 13 -31 32 6 24 -10 62
-35 81 -17 13 -45 15 -71 6z m58 -70 c4 -27 -24 -83 -42 -83 -7 0 -19 18 -26
40 -11 32 -11 42 0 55 19 23 64 15 68 -12z m83 -104 c24 -24 21 -67 -9 -129
-27 -56 -45 -50 -75 26 -25 65 -26 69 -9 87 16 18 46 35 65 36 4 1 16 -8 28
-20z"/>
<path d="M9290 1733 c0 -36 34 -238 46 -276 3 -10 13 -17 22 -15 14 3 16 13
14 50 -3 43 -1 47 33 68 l36 22 35 -41 c37 -43 58 -51 68 -26 7 20 -208 255
-235 255 -15 0 -19 -7 -19 -37z m107 -117 c-4 -12 -35 -32 -40 -26 -3 3 -7 28
-11 55 l-6 50 30 -35 c17 -19 29 -39 27 -44z"/>
<path d="M11356 2741 c-34 -53 -43 -91 -23 -91 9 0 19 10 23 23 4 12 17 38 30
57 28 40 30 50 9 50 -8 0 -26 -18 -39 -39z"/>
<path d="M11430 2690 c-33 -66 -36 -80 -17 -80 14 0 67 100 67 125 0 31 -21
13 -50 -45z"/>
<path d="M11276 2542 c-4 -6 1 -23 10 -37 16 -25 16 -25 -15 -31 -18 -4 -31
-13 -31 -21 0 -12 9 -14 43 -9 42 6 43 6 75 -39 30 -43 52 -57 52 -34 0 5 -11
27 -25 47 l-25 37 40 9 c56 12 45 32 -15 28 -43 -3 -50 0 -75 29 -17 21 -29
29 -34 21z"/>
<path d="M5135 1748 c6 -42 5 -44 -31 -63 -46 -25 -66 -44 -58 -56 3 -6 25 1
51 16 25 14 47 25 49 25 1 0 4 -19 6 -42 4 -60 22 -49 26 15 3 47 6 55 32 71
17 9 30 21 30 27 0 12 -37 12 -45 -1 -11 -18 -23 -10 -30 20 -4 17 -13 30 -21
30 -12 0 -14 -9 -9 -42z"/>
<path d="M5336 1691 c-7 -10 115 -91 127 -84 11 7 -21 41 -65 69 -40 26 -54
29 -62 15z"/>
<path d="M5796 1623 c-13 -13 -5 -22 48 -52 54 -31 91 -40 84 -21 -5 15 -124
81 -132 73z"/>
<path d="M5290 1608 c0 -15 127 -85 136 -75 11 11 -17 37 -68 63 -53 27 -68
30 -68 12z"/>
<path d="M6112 1548 c-6 -7 -31 -56 -56 -108 -42 -88 -44 -95 -29 -112 11 -12
30 -18 59 -18 34 0 47 5 64 27 30 38 23 82 -16 108 l-31 21 18 35 c20 37 24
59 10 59 -5 0 -13 -6 -19 -12z m9 -128 c38 -21 12 -80 -36 -80 -32 0 -35 9
-18 53 16 39 23 43 54 27z"/>
<path d="M6879 1492 c-51 -61 -229 -296 -289 -380 -38 -53 -36 -24 9 163 45
185 47 195 28 195 -16 0 -95 -317 -104 -416 -8 -83 8 -84 62 -4 69 102 336
451 349 456 7 3 248 -129 535 -292 344 -196 525 -294 532 -287 6 6 5 13 -3 20
-7 5 -238 137 -513 293 -275 156 -509 292 -521 302 -11 10 -22 18 -25 18 -2 0
-29 -31 -60 -68z"/>
<path d="M5500 1506 c0 -15 2261 -1306 2287 -1306 8 0 13 5 11 11 -4 11 -2275
1309 -2290 1309 -5 0 -8 -6 -8 -14z"/>
<path d="M6395 1329 c-12 -23 -21 -29 -35 -24 -33 10 -46 -6 -20 -25 22 -16
22 -18 5 -50 -25 -49 -3 -64 25 -17 21 36 22 36 50 22 16 -8 36 -15 45 -15 27
0 16 20 -20 37 -39 18 -41 26 -20 63 18 32 18 40 0 40 -8 0 -22 -14 -30 -31z"/>
<path d="M10792 1238 c-32 -32 2 -58 76 -58 63 0 213 -26 258 -45 31 -13 34
-18 34 -54 0 -57 -48 -143 -254 -455 -115 -176 -176 -276 -174 -290 2 -15 11
-22 33 -24 17 -1 35 1 41 5 10 7 302 446 364 547 67 110 369 156 467 71 26
-21 28 -29 27 -92 0 -61 -5 -78 -46 -158 -89 -175 -190 -339 -345 -559 l-85
-121 53 -3 c36 -2 55 1 60 10 4 7 41 59 82 115 169 232 369 585 383 678 16
112 -40 197 -154 229 -73 20 -209 21 -282 1 -79 -21 -77 -22 -72 38 4 46 1 57
-23 85 -35 41 -122 68 -263 82 -138 13 -165 13 -180 -2z"/>
<path d="M6951 1227 c-15 -19 -4 -27 30 -20 24 4 29 2 29 -14 0 -29 -20 -43
-62 -43 -50 0 -50 -20 1 -48 46 -26 61 -28 61 -7 0 8 -5 15 -12 15 -6 0 -2 9
11 21 53 50 46 109 -13 109 -19 0 -39 -6 -45 -13z"/>
<path d="M6796 1153 c-20 -40 -86 -202 -86 -212 0 -12 47 -31 76 -31 36 0 84
51 84 88 0 31 -26 62 -53 62 -21 0 -21 17 -2 63 8 20 15 41 15 47 0 20 -20 10
-34 -17z m41 -139 c8 -23 -17 -64 -45 -71 -37 -9 -49 11 -29 52 13 26 23 35
42 35 14 0 28 -7 32 -16z"/>
<path d="M7010 908 c0 -15 130 -79 143 -71 14 9 -16 35 -68 59 -57 27 -75 30
-75 12z"/>
<path d="M7240 829 c-41 -34 -76 -67 -78 -74 -2 -7 18 -25 43 -41 30 -19 44
-34 41 -44 -18 -57 -18 -60 -4 -60 8 0 20 11 26 25 6 14 19 25 28 25 11 0 14
5 10 16 -4 9 11 49 36 95 39 71 45 101 19 85 -6 -4 -27 -37 -47 -74 -21 -37
-39 -69 -40 -71 -3 -3 -74 38 -74 43 0 2 28 25 63 52 68 53 78 64 71 76 -9 14
-17 9 -94 -53z"/>
<path d="M6450 827 c-20 -7 -36 -20 -38 -31 -3 -15 0 -17 14 -11 39 16 94 29
100 22 3 -3 4 -17 0 -31 -5 -19 -26 -34 -96 -67 -50 -23 -90 -48 -90 -56 0
-12 96 -83 112 -83 21 0 4 31 -27 50 -19 12 -35 25 -35 30 0 4 29 20 64 35 96
41 137 96 100 136 -19 21 -53 23 -104 6z"/>
<path d="M3236 811 c-5 -8 2 -23 19 -40 l26 -28 -31 -49 c-19 -31 -26 -50 -19
-53 7 -2 15 3 20 11 5 8 17 26 29 39 l20 24 34 -37 c56 -64 67 -41 12 25 l-35
42 19 25 c11 14 20 28 20 33 0 15 -22 6 -41 -15 l-18 -23 -24 29 c-17 21 -26
26 -31 17z"/>
<path d="M2950 802 c0 -11 59 -35 120 -50 19 -4 35 -12 35 -18 0 -5 -30 -25
-67 -44 -76 -39 -89 -50 -64 -50 26 0 139 56 159 78 16 18 16 20 0 34 -10 9
-45 23 -78 32 -33 8 -70 18 -82 22 -13 4 -23 2 -23 -4z"/>
<path d="M7420 688 c-25 -13 -52 -35 -60 -50 -13 -25 -13 -29 6 -55 15 -20 31
-29 57 -31 28 -2 36 -8 39 -24 6 -41 28 -32 28 12 0 22 9 58 20 80 24 47 26
76 4 84 -27 10 -48 7 -94 -16z m70 -12 c0 -2 -9 -25 -20 -50 -15 -37 -24 -46
-44 -46 -38 0 -51 32 -23 58 27 25 87 51 87 38z"/>
<path d="M631 635 c-47 -40 -45 -111 4 -133 65 -30 129 53 94 121 -24 45 -54
48 -98 12z m79 -51 c0 -38 -24 -66 -53 -62 -48 7 -47 77 1 102 35 18 52 5 52
-40z"/>
<path d="M6579 645 c-33 -18 -59 -57 -59 -89 0 -32 40 -61 74 -52 20 5 25 2
28 -16 2 -13 10 -23 18 -23 11 0 14 9 12 36 -2 24 5 52 22 83 14 26 22 54 19
62 -7 18 -79 18 -114 -1z m71 -20 c0 -17 -41 -83 -55 -88 -22 -9 -45 3 -45 23
0 23 55 70 81 70 10 0 19 -2 19 -5z"/>
<path d="M2732 623 l-33 -4 3 -52 3 -52 49 3 c51 3 86 -16 86 -48 0 -42 -51
-53 -94 -19 -19 15 -26 17 -26 6 0 -8 8 -21 18 -29 29 -26 59 -30 92 -13 26
13 30 21 30 55 0 49 -27 70 -87 70 -41 0 -43 1 -43 30 0 26 4 30 28 30 37 0
72 10 72 21 0 9 -35 10 -98 2z"/>
<path d="M7582 615 c-44 -19 -67 -73 -52 -120 14 -41 30 -55 67 -58 19 -1 28
3 28 13 0 8 -7 14 -16 12 -22 -3 -51 32 -51 64 0 53 47 76 120 59 44 -10 43
12 -3 31 -42 17 -51 17 -93 -1z"/>
</g>
</svg>
